<?xml version="1.0" encoding="utf-8" standalone="no"?>
<!DOCTYPE svg PUBLIC "-//W3C//DTD SVG 1.1//EN"
  "http://www.w3.org/Graphics/SVG/1.1/DTD/svg11.dtd">
<!-- Created with matplotlib (https://matplotlib.org/) -->
<svg height="385.791781pt" version="1.1" viewBox="0 0 358.233383 385.791781" width="358.233383pt" xmlns="http://www.w3.org/2000/svg" xmlns:xlink="http://www.w3.org/1999/xlink">
 <metadata>
  <rdf:RDF xmlns:cc="http://creativecommons.org/ns#" xmlns:dc="http://purl.org/dc/elements/1.1/" xmlns:rdf="http://www.w3.org/1999/02/22-rdf-syntax-ns#">
   <cc:Work>
    <dc:type rdf:resource="http://purl.org/dc/dcmitype/StillImage"/>
    <dc:date>2021-03-08T20:38:57.023650</dc:date>
    <dc:format>image/svg+xml</dc:format>
    <dc:creator>
     <cc:Agent>
      <dc:title>Matplotlib v3.3.4, https://matplotlib.org/</dc:title>
     </cc:Agent>
    </dc:creator>
   </cc:Work>
  </rdf:RDF>
 </metadata>
 <defs>
  <style type="text/css">*{stroke-linecap:butt;stroke-linejoin:round;}</style>
 </defs>
 <g id="figure_1">
  <g id="patch_1">
   <path d="M 0 385.791781 
L 358.233383 385.791781 
L 358.233383 0 
L 0 0 
z
" style="fill:#ffffff;"/>
  </g>
  <g id="axes_1">
   <g id="patch_2">
    <path d="M 62.351531 330.512 
L 350.070013 330.512 
L 350.070013 30.3 
L 62.351531 30.3 
z
" style="fill:#eaeaf2;"/>
   </g>
   <g id="matplotlib.axis_1">
    <g id="xtick_1">
     <g id="line2d_1">
      <path clip-path="url(#pd21c0fa27f)" d="M 81.267279 330.512 
L 81.267279 30.3 
" style="fill:none;stroke:#ffffff;stroke-linecap:round;"/>
     </g>
     <g id="text_1">
      <!-- 1 -->
      <g style="fill:#262626;" transform="translate(76.985357 351.035031)scale(0.154 -0.154)">
       <defs>
        <path d="M 37.25 0 
L 28.46875 0 
L 28.46875 56 
Q 25.296875 52.984375 20.140625 49.953125 
Q 14.984375 46.921875 10.890625 45.40625 
L 10.890625 53.90625 
Q 18.265625 57.375 23.78125 62.296875 
Q 29.296875 67.234375 31.59375 71.875 
L 37.25 71.875 
z
" id="ArialMT-49"/>
       </defs>
       <use xlink:href="#ArialMT-49"/>
      </g>
     </g>
    </g>
    <g id="xtick_2">
     <g id="line2d_2">
      <path clip-path="url(#pd21c0fa27f)" d="M 147.638325 330.512 
L 147.638325 30.3 
" style="fill:none;stroke:#ffffff;stroke-linecap:round;"/>
     </g>
     <g id="text_2">
      <!-- 2 -->
      <g style="fill:#262626;" transform="translate(143.356403 351.035031)scale(0.154 -0.154)">
       <defs>
        <path d="M 50.34375 8.453125 
L 50.34375 0 
L 3.03125 0 
Q 2.9375 3.171875 4.046875 6.109375 
Q 5.859375 10.9375 9.828125 15.625 
Q 13.8125 20.3125 21.34375 26.46875 
Q 33.015625 36.03125 37.109375 41.625 
Q 41.21875 47.21875 41.21875 52.203125 
Q 41.21875 57.421875 37.46875 61 
Q 33.734375 64.59375 27.734375 64.59375 
Q 21.390625 64.59375 17.578125 60.78125 
Q 13.765625 56.984375 13.71875 50.25 
L 4.6875 51.171875 
Q 5.609375 61.28125 11.65625 66.578125 
Q 17.71875 71.875 27.9375 71.875 
Q 38.234375 71.875 44.234375 66.15625 
Q 50.25 60.453125 50.25 52 
Q 50.25 47.703125 48.484375 43.546875 
Q 46.734375 39.40625 42.65625 34.8125 
Q 38.578125 30.21875 29.109375 22.21875 
Q 21.1875 15.578125 18.9375 13.203125 
Q 16.703125 10.84375 15.234375 8.453125 
z
" id="ArialMT-50"/>
       </defs>
       <use xlink:href="#ArialMT-50"/>
      </g>
     </g>
    </g>
    <g id="xtick_3">
     <g id="line2d_3">
      <path clip-path="url(#pd21c0fa27f)" d="M 214.00937 330.512 
L 214.00937 30.3 
" style="fill:none;stroke:#ffffff;stroke-linecap:round;"/>
     </g>
     <g id="text_3">
      <!-- 3 -->
      <g style="fill:#262626;" transform="translate(209.727448 351.035031)scale(0.154 -0.154)">
       <defs>
        <path d="M 4.203125 18.890625 
L 12.984375 20.0625 
Q 14.5 12.59375 18.140625 9.296875 
Q 21.78125 6 27 6 
Q 33.203125 6 37.46875 10.296875 
Q 41.75 14.59375 41.75 20.953125 
Q 41.75 27 37.796875 30.921875 
Q 33.84375 34.859375 27.734375 34.859375 
Q 25.25 34.859375 21.53125 33.890625 
L 22.515625 41.609375 
Q 23.390625 41.5 23.921875 41.5 
Q 29.546875 41.5 34.03125 44.421875 
Q 38.53125 47.359375 38.53125 53.46875 
Q 38.53125 58.296875 35.25 61.46875 
Q 31.984375 64.65625 26.8125 64.65625 
Q 21.6875 64.65625 18.265625 61.421875 
Q 14.84375 58.203125 13.875 51.765625 
L 5.078125 53.328125 
Q 6.6875 62.15625 12.390625 67.015625 
Q 18.109375 71.875 26.609375 71.875 
Q 32.46875 71.875 37.390625 69.359375 
Q 42.328125 66.84375 44.9375 62.5 
Q 47.5625 58.15625 47.5625 53.265625 
Q 47.5625 48.640625 45.0625 44.828125 
Q 42.578125 41.015625 37.703125 38.765625 
Q 44.046875 37.3125 47.5625 32.6875 
Q 51.078125 28.078125 51.078125 21.140625 
Q 51.078125 11.765625 44.234375 5.25 
Q 37.40625 -1.265625 26.953125 -1.265625 
Q 17.53125 -1.265625 11.296875 4.34375 
Q 5.078125 9.96875 4.203125 18.890625 
z
" id="ArialMT-51"/>
       </defs>
       <use xlink:href="#ArialMT-51"/>
      </g>
     </g>
    </g>
    <g id="xtick_4">
     <g id="line2d_4">
      <path clip-path="url(#pd21c0fa27f)" d="M 280.380416 330.512 
L 280.380416 30.3 
" style="fill:none;stroke:#ffffff;stroke-linecap:round;"/>
     </g>
     <g id="text_4">
      <!-- 4 -->
      <g style="fill:#262626;" transform="translate(276.098494 351.035031)scale(0.154 -0.154)">
       <defs>
        <path d="M 32.328125 0 
L 32.328125 17.140625 
L 1.265625 17.140625 
L 1.265625 25.203125 
L 33.9375 71.578125 
L 41.109375 71.578125 
L 41.109375 25.203125 
L 50.78125 25.203125 
L 50.78125 17.140625 
L 41.109375 17.140625 
L 41.109375 0 
z
M 32.328125 25.203125 
L 32.328125 57.46875 
L 9.90625 25.203125 
z
" id="ArialMT-52"/>
       </defs>
       <use xlink:href="#ArialMT-52"/>
      </g>
     </g>
    </g>
    <g id="xtick_5">
     <g id="line2d_5">
      <path clip-path="url(#pd21c0fa27f)" d="M 346.751461 330.512 
L 346.751461 30.3 
" style="fill:none;stroke:#ffffff;stroke-linecap:round;"/>
     </g>
     <g id="text_5">
      <!-- 5 -->
      <g style="fill:#262626;" transform="translate(342.469539 351.035031)scale(0.154 -0.154)">
       <defs>
        <path d="M 4.15625 18.75 
L 13.375 19.53125 
Q 14.40625 12.796875 18.140625 9.390625 
Q 21.875 6 27.15625 6 
Q 33.5 6 37.890625 10.78125 
Q 42.28125 15.578125 42.28125 23.484375 
Q 42.28125 31 38.0625 35.34375 
Q 33.84375 39.703125 27 39.703125 
Q 22.75 39.703125 19.328125 37.765625 
Q 15.921875 35.84375 13.96875 32.765625 
L 5.71875 33.84375 
L 12.640625 70.609375 
L 48.25 70.609375 
L 48.25 62.203125 
L 19.671875 62.203125 
L 15.828125 42.96875 
Q 22.265625 47.46875 29.34375 47.46875 
Q 38.71875 47.46875 45.15625 40.96875 
Q 51.609375 34.46875 51.609375 24.265625 
Q 51.609375 14.546875 45.953125 7.46875 
Q 39.0625 -1.21875 27.15625 -1.21875 
Q 17.390625 -1.21875 11.203125 4.25 
Q 5.03125 9.71875 4.15625 18.75 
z
" id="ArialMT-53"/>
       </defs>
       <use xlink:href="#ArialMT-53"/>
      </g>
     </g>
    </g>
    <g id="text_6">
     <!-- $\frac{1}{x} (\frac{1}{m})$ -->
     <g style="fill:#262626;" transform="translate(188.066772 374.055781)scale(0.168 -0.168)">
      <defs>
       <path d="M 12.40625 8.296875 
L 28.515625 8.296875 
L 28.515625 63.921875 
L 10.984375 60.40625 
L 10.984375 69.390625 
L 28.421875 72.90625 
L 38.28125 72.90625 
L 38.28125 8.296875 
L 54.390625 8.296875 
L 54.390625 0 
L 12.40625 0 
z
" id="DejaVuSans-49"/>
       <path d="M 60.015625 54.6875 
L 34.90625 27.875 
L 50.296875 0 
L 39.984375 0 
L 28.421875 21.6875 
L 8.296875 0 
L -2.59375 0 
L 24.3125 28.8125 
L 10.015625 54.6875 
L 20.3125 54.6875 
L 30.8125 34.90625 
L 49.125 54.6875 
z
" id="DejaVuSans-Oblique-120"/>
       <path d="M 31 75.875 
Q 24.46875 64.65625 21.28125 53.65625 
Q 18.109375 42.671875 18.109375 31.390625 
Q 18.109375 20.125 21.3125 9.0625 
Q 24.515625 -2 31 -13.1875 
L 23.1875 -13.1875 
Q 15.875 -1.703125 12.234375 9.375 
Q 8.59375 20.453125 8.59375 31.390625 
Q 8.59375 42.28125 12.203125 53.3125 
Q 15.828125 64.359375 23.1875 75.875 
z
" id="DejaVuSans-40"/>
       <path d="M 89.796875 33.015625 
L 83.40625 0 
L 74.421875 0 
L 80.71875 32.71875 
Q 81.109375 34.8125 81.296875 36.328125 
Q 81.5 37.84375 81.5 38.921875 
Q 81.5 43.3125 79.046875 45.75 
Q 76.609375 48.1875 72.21875 48.1875 
Q 65.671875 48.1875 60.546875 43.28125 
Q 55.421875 38.375 53.90625 30.515625 
L 47.90625 0 
L 38.921875 0 
L 45.3125 32.71875 
Q 45.703125 34.515625 45.890625 36.046875 
Q 46.09375 37.59375 46.09375 38.8125 
Q 46.09375 43.265625 43.65625 45.71875 
Q 41.21875 48.1875 36.921875 48.1875 
Q 30.28125 48.1875 25.140625 43.28125 
Q 20.015625 38.375 18.5 30.515625 
L 12.5 0 
L 3.515625 0 
L 14.203125 54.6875 
L 23.1875 54.6875 
L 21.484375 46.1875 
Q 25.140625 50.984375 30.046875 53.484375 
Q 34.96875 56 40.578125 56 
Q 46.53125 56 50.359375 52.875 
Q 54.203125 49.75 54.984375 44.1875 
Q 59.078125 49.953125 64.46875 52.96875 
Q 69.875 56 75.875 56 
Q 82.90625 56 86.734375 51.953125 
Q 90.578125 47.90625 90.578125 40.484375 
Q 90.578125 38.875 90.375 36.9375 
Q 90.1875 35.015625 89.796875 33.015625 
z
" id="DejaVuSans-Oblique-109"/>
       <path d="M 8.015625 75.875 
L 15.828125 75.875 
Q 23.140625 64.359375 26.78125 53.3125 
Q 30.421875 42.28125 30.421875 31.390625 
Q 30.421875 20.453125 26.78125 9.375 
Q 23.140625 -1.703125 15.828125 -13.1875 
L 8.015625 -13.1875 
Q 14.5 -2 17.703125 9.0625 
Q 20.90625 20.125 20.90625 31.390625 
Q 20.90625 42.671875 17.703125 53.65625 
Q 14.5 64.65625 8.015625 75.875 
z
" id="DejaVuSans-41"/>
      </defs>
      <use transform="translate(0 43.965625)scale(0.7)" xlink:href="#DejaVuSans-49"/>
      <use transform="translate(2 -25.565625)scale(0.7)" xlink:href="#DejaVuSans-Oblique-120"/>
      <use transform="translate(57.036133 0.16875)" xlink:href="#DejaVuSans-40"/>
      <use transform="translate(108.049805 43.965625)scale(0.7)" xlink:href="#DejaVuSans-49"/>
      <use transform="translate(96.049805 -26.484375)scale(0.7)" xlink:href="#DejaVuSans-Oblique-109"/>
      <use transform="translate(176.738281 0.16875)" xlink:href="#DejaVuSans-41"/>
      <path d="M 0 18.965625 
L 0 25.215625 
L 44.536133 25.215625 
L 44.536133 18.965625 
L 0 18.965625 
z
"/>
      <path d="M 96.049805 18.965625 
L 96.049805 25.215625 
L 164.238281 25.215625 
L 164.238281 18.965625 
L 96.049805 18.965625 
z
"/>
     </g>
    </g>
   </g>
   <g id="matplotlib.axis_2">
    <g id="ytick_1">
     <g id="line2d_6">
      <path clip-path="url(#pd21c0fa27f)" d="M 62.351531 300.623596 
L 350.070013 300.623596 
" style="fill:none;stroke:#ffffff;stroke-linecap:round;"/>
     </g>
     <g id="text_7">
      <!-- 100 -->
      <g style="fill:#262626;" transform="translate(27.16 306.135112)scale(0.154 -0.154)">
       <defs>
        <path d="M 4.15625 35.296875 
Q 4.15625 48 6.765625 55.734375 
Q 9.375 63.484375 14.515625 67.671875 
Q 19.671875 71.875 27.484375 71.875 
Q 33.25 71.875 37.59375 69.546875 
Q 41.9375 67.234375 44.765625 62.859375 
Q 47.609375 58.5 49.21875 52.21875 
Q 50.828125 45.953125 50.828125 35.296875 
Q 50.828125 22.703125 48.234375 14.96875 
Q 45.65625 7.234375 40.5 3 
Q 35.359375 -1.21875 27.484375 -1.21875 
Q 17.140625 -1.21875 11.234375 6.203125 
Q 4.15625 15.140625 4.15625 35.296875 
z
M 13.1875 35.296875 
Q 13.1875 17.671875 17.3125 11.828125 
Q 21.4375 6 27.484375 6 
Q 33.546875 6 37.671875 11.859375 
Q 41.796875 17.71875 41.796875 35.296875 
Q 41.796875 52.984375 37.671875 58.78125 
Q 33.546875 64.59375 27.390625 64.59375 
Q 21.34375 64.59375 17.71875 59.46875 
Q 13.1875 52.9375 13.1875 35.296875 
z
" id="ArialMT-48"/>
       </defs>
       <use xlink:href="#ArialMT-49"/>
       <use x="55.615234" xlink:href="#ArialMT-48"/>
       <use x="111.230469" xlink:href="#ArialMT-48"/>
      </g>
     </g>
    </g>
    <g id="ytick_2">
     <g id="line2d_7">
      <path clip-path="url(#pd21c0fa27f)" d="M 62.351531 243.763641 
L 350.070013 243.763641 
" style="fill:none;stroke:#ffffff;stroke-linecap:round;"/>
     </g>
     <g id="text_8">
      <!-- 200 -->
      <g style="fill:#262626;" transform="translate(27.16 249.275157)scale(0.154 -0.154)">
       <use xlink:href="#ArialMT-50"/>
       <use x="55.615234" xlink:href="#ArialMT-48"/>
       <use x="111.230469" xlink:href="#ArialMT-48"/>
      </g>
     </g>
    </g>
    <g id="ytick_3">
     <g id="line2d_8">
      <path clip-path="url(#pd21c0fa27f)" d="M 62.351531 186.903686 
L 350.070013 186.903686 
" style="fill:none;stroke:#ffffff;stroke-linecap:round;"/>
     </g>
     <g id="text_9">
      <!-- 300 -->
      <g style="fill:#262626;" transform="translate(27.16 192.415201)scale(0.154 -0.154)">
       <use xlink:href="#ArialMT-51"/>
       <use x="55.615234" xlink:href="#ArialMT-48"/>
       <use x="111.230469" xlink:href="#ArialMT-48"/>
      </g>
     </g>
    </g>
    <g id="ytick_4">
     <g id="line2d_9">
      <path clip-path="url(#pd21c0fa27f)" d="M 62.351531 130.043731 
L 350.070013 130.043731 
" style="fill:none;stroke:#ffffff;stroke-linecap:round;"/>
     </g>
     <g id="text_10">
      <!-- 400 -->
      <g style="fill:#262626;" transform="translate(27.16 135.555246)scale(0.154 -0.154)">
       <use xlink:href="#ArialMT-52"/>
       <use x="55.615234" xlink:href="#ArialMT-48"/>
       <use x="111.230469" xlink:href="#ArialMT-48"/>
      </g>
     </g>
    </g>
    <g id="ytick_5">
     <g id="line2d_10">
      <path clip-path="url(#pd21c0fa27f)" d="M 62.351531 73.183776 
L 350.070013 73.183776 
" style="fill:none;stroke:#ffffff;stroke-linecap:round;"/>
     </g>
     <g id="text_11">
      <!-- 500 -->
      <g style="fill:#262626;" transform="translate(27.16 78.695291)scale(0.154 -0.154)">
       <use xlink:href="#ArialMT-53"/>
       <use x="55.615234" xlink:href="#ArialMT-48"/>
       <use x="111.230469" xlink:href="#ArialMT-48"/>
      </g>
     </g>
    </g>
    <g id="text_12">
     <!-- $E_x$ (V/m) -->
     <g style="fill:#262626;" transform="translate(19.464 212.326)rotate(-90)scale(0.168 -0.168)">
      <defs>
       <path d="M 16.890625 72.90625 
L 62.984375 72.90625 
L 61.375 64.59375 
L 25.09375 64.59375 
L 20.90625 43.015625 
L 55.71875 43.015625 
L 54.109375 34.71875 
L 19.28125 34.71875 
L 14.203125 8.296875 
L 51.3125 8.296875 
L 49.703125 0 
L 2.6875 0 
z
" id="DejaVuSans-Oblique-69"/>
       <path id="ArialMT-32"/>
       <path d="M 23.390625 -21.046875 
Q 16.109375 -11.859375 11.078125 0.4375 
Q 6.0625 12.75 6.0625 25.921875 
Q 6.0625 37.546875 9.8125 48.1875 
Q 14.203125 60.546875 23.390625 72.796875 
L 29.6875 72.796875 
Q 23.78125 62.640625 21.875 58.296875 
Q 18.890625 51.5625 17.1875 44.234375 
Q 15.09375 35.109375 15.09375 25.875 
Q 15.09375 2.390625 29.6875 -21.046875 
z
" id="ArialMT-40"/>
       <path d="M 28.171875 0 
L 0.4375 71.578125 
L 10.6875 71.578125 
L 29.296875 19.578125 
Q 31.546875 13.328125 33.0625 7.859375 
Q 34.71875 13.71875 36.921875 19.578125 
L 56.25 71.578125 
L 65.921875 71.578125 
L 37.890625 0 
z
" id="ArialMT-86"/>
       <path d="M 0 -1.21875 
L 20.75 72.796875 
L 27.78125 72.796875 
L 7.078125 -1.21875 
z
" id="ArialMT-47"/>
       <path d="M 6.59375 0 
L 6.59375 51.859375 
L 14.453125 51.859375 
L 14.453125 44.578125 
Q 16.890625 48.390625 20.9375 50.703125 
Q 25 53.03125 30.171875 53.03125 
Q 35.9375 53.03125 39.625 50.640625 
Q 43.3125 48.25 44.828125 43.953125 
Q 50.984375 53.03125 60.84375 53.03125 
Q 68.5625 53.03125 72.703125 48.75 
Q 76.859375 44.484375 76.859375 35.59375 
L 76.859375 0 
L 68.109375 0 
L 68.109375 32.671875 
Q 68.109375 37.9375 67.25 40.25 
Q 66.40625 42.578125 64.15625 43.984375 
Q 61.921875 45.40625 58.890625 45.40625 
Q 53.421875 45.40625 49.796875 41.765625 
Q 46.1875 38.140625 46.1875 30.125 
L 46.1875 0 
L 37.40625 0 
L 37.40625 33.6875 
Q 37.40625 39.546875 35.25 42.46875 
Q 33.109375 45.40625 28.21875 45.40625 
Q 24.515625 45.40625 21.359375 43.453125 
Q 18.21875 41.5 16.796875 37.734375 
Q 15.375 33.984375 15.375 26.90625 
L 15.375 0 
z
" id="ArialMT-109"/>
       <path d="M 12.359375 -21.046875 
L 6.0625 -21.046875 
Q 20.65625 2.390625 20.65625 25.875 
Q 20.65625 35.0625 18.5625 44.09375 
Q 16.890625 51.421875 13.921875 58.15625 
Q 12.015625 62.546875 6.0625 72.796875 
L 12.359375 72.796875 
Q 21.53125 60.546875 25.921875 48.1875 
Q 29.6875 37.546875 29.6875 25.921875 
Q 29.6875 12.75 24.625 0.4375 
Q 19.578125 -11.859375 12.359375 -21.046875 
z
" id="ArialMT-41"/>
      </defs>
      <use transform="translate(0 0.09375)" xlink:href="#DejaVuSans-Oblique-69"/>
      <use transform="translate(63.183594 -16.3125)scale(0.7)" xlink:href="#DejaVuSans-Oblique-120"/>
      <use transform="translate(107.34375 0.09375)" xlink:href="#ArialMT-32"/>
      <use transform="translate(135.126953 0.09375)" xlink:href="#ArialMT-40"/>
      <use transform="translate(168.427734 0.09375)" xlink:href="#ArialMT-86"/>
      <use transform="translate(235.126953 0.09375)" xlink:href="#ArialMT-47"/>
      <use transform="translate(262.910156 0.09375)" xlink:href="#ArialMT-109"/>
      <use transform="translate(346.210938 0.09375)" xlink:href="#ArialMT-41"/>
     </g>
    </g>
   </g>
   <g id="PathCollection_1">
    <defs>
     <path d="M 0 4.472136 
C 1.186024 4.472136 2.323632 4.000923 3.162278 3.162278 
C 4.000923 2.323632 4.472136 1.186024 4.472136 0 
C 4.472136 -1.186024 4.000923 -2.323632 3.162278 -3.162278 
C 2.323632 -4.000923 1.186024 -4.472136 0 -4.472136 
C -1.186024 -4.472136 -2.323632 -4.000923 -3.162278 -3.162278 
C -4.000923 -2.323632 -4.472136 -1.186024 -4.472136 0 
C -4.472136 1.186024 -4.000923 2.323632 -3.162278 3.162278 
C -2.323632 4.000923 -1.186024 4.472136 0 4.472136 
z
" id="mec8c599604" style="stroke:#ffffff;stroke-opacity:0.8;stroke-width:0.7;"/>
    </defs>
    <g clip-path="url(#pd21c0fa27f)">
     <use style="fill:#f77189;fill-opacity:0.8;stroke:#ffffff;stroke-opacity:0.8;stroke-width:0.7;" x="350.070013" xlink:href="#mec8c599604" y="56.125789"/>
     <use style="fill:#f77189;fill-opacity:0.8;stroke:#ffffff;stroke-opacity:0.8;stroke-width:0.7;" x="233.920684" xlink:href="#mec8c599604" y="158.473708"/>
     <use style="fill:#f77189;fill-opacity:0.8;stroke:#ffffff;stroke-opacity:0.8;stroke-width:0.7;" x="180.425621" xlink:href="#mec8c599604" y="203.961672"/>
     <use style="fill:#f77189;fill-opacity:0.8;stroke:#ffffff;stroke-opacity:0.8;stroke-width:0.7;" x="148.169293" xlink:href="#mec8c599604" y="236.940446"/>
     <use style="fill:#f77189;fill-opacity:0.8;stroke:#ffffff;stroke-opacity:0.8;stroke-width:0.7;" x="124.939427" xlink:href="#mec8c599604" y="258.547229"/>
     <use style="fill:#f77189;fill-opacity:0.8;stroke:#ffffff;stroke-opacity:0.8;stroke-width:0.7;" x="109.607716" xlink:href="#mec8c599604" y="272.762218"/>
     <use style="fill:#f77189;fill-opacity:0.8;stroke:#ffffff;stroke-opacity:0.8;stroke-width:0.7;" x="98.059154" xlink:href="#mec8c599604" y="282.42841"/>
     <use style="fill:#f77189;fill-opacity:0.8;stroke:#ffffff;stroke-opacity:0.8;stroke-width:0.7;" x="88.368981" xlink:href="#mec8c599604" y="292.094603"/>
     <use style="fill:#f77189;fill-opacity:0.8;stroke:#ffffff;stroke-opacity:0.8;stroke-width:0.7;" x="81.200908" xlink:href="#mec8c599604" y="298.349198"/>
     <use style="fill:#f77189;fill-opacity:0.8;stroke:#ffffff;stroke-opacity:0.8;stroke-width:0.7;" x="74.497433" xlink:href="#mec8c599604" y="305.627272"/>
     <use style="fill:#f77189;fill-opacity:0.8;stroke:#ffffff;stroke-opacity:0.8;stroke-width:0.7;" x="70.050573" xlink:href="#mec8c599604" y="309.436889"/>
     <use style="fill:#f77189;fill-opacity:0.8;stroke:#ffffff;stroke-opacity:0.8;stroke-width:0.7;" x="65.935568" xlink:href="#mec8c599604" y="313.246506"/>
     <use style="fill:#f77189;fill-opacity:0.8;stroke:#ffffff;stroke-opacity:0.8;stroke-width:0.7;" x="62.351531" xlink:href="#mec8c599604" y="316.601243"/>
    </g>
   </g>
   <g id="PolyCollection_1">
    <defs>
     <path d="M 62.351531 -71.017292 
L 62.351531 -68.925781 
L 65.257779 -71.686244 
L 68.164026 -74.444599 
L 71.070273 -77.20126 
L 73.97652 -79.948243 
L 76.882768 -82.677656 
L 79.789015 -85.388128 
L 82.695262 -88.07348 
L 85.60151 -90.770056 
L 88.507757 -93.423657 
L 91.414004 -96.087299 
L 94.320251 -98.76034 
L 97.226499 -101.392007 
L 100.132746 -104.019131 
L 103.038993 -106.663446 
L 105.945241 -109.297802 
L 108.851488 -111.937032 
L 111.757735 -114.576219 
L 114.663983 -117.215614 
L 117.57023 -119.846645 
L 120.476477 -122.484571 
L 123.382724 -125.119077 
L 126.288972 -127.752407 
L 129.195219 -130.382745 
L 132.101466 -133.009018 
L 135.007714 -135.641356 
L 137.913961 -138.271266 
L 140.820208 -140.903168 
L 143.726455 -143.528181 
L 146.632703 -146.153092 
L 149.53895 -148.782327 
L 152.445197 -151.412044 
L 155.351445 -154.040137 
L 158.257692 -156.668032 
L 161.163939 -159.296721 
L 164.070187 -161.924831 
L 166.976434 -164.553008 
L 169.882681 -167.18177 
L 172.788928 -169.809464 
L 175.695176 -172.437553 
L 178.601423 -175.065703 
L 181.50767 -177.693939 
L 184.413918 -180.322175 
L 187.320165 -182.952059 
L 190.226412 -185.580379 
L 193.132659 -188.208638 
L 196.038907 -190.837937 
L 198.945154 -193.464644 
L 201.851401 -196.099358 
L 204.757649 -198.733688 
L 207.663896 -201.360335 
L 210.570143 -203.986744 
L 213.476391 -206.613154 
L 216.382638 -209.238566 
L 219.288885 -211.860268 
L 222.195132 -214.488261 
L 225.10138 -217.11617 
L 228.007627 -219.736356 
L 230.913874 -222.357715 
L 233.820122 -224.984193 
L 236.726369 -227.609135 
L 239.632616 -230.23209 
L 242.538863 -232.861079 
L 245.445111 -235.490668 
L 248.351358 -238.115756 
L 251.257605 -240.744149 
L 254.163853 -243.370732 
L 257.0701 -245.995777 
L 259.976347 -248.614944 
L 262.882595 -251.236786 
L 265.788842 -253.860867 
L 268.695089 -256.484948 
L 271.601336 -259.109028 
L 274.507584 -261.733109 
L 277.413831 -264.35719 
L 280.320078 -266.981527 
L 283.226326 -269.605896 
L 286.132573 -272.230264 
L 289.03882 -274.854632 
L 291.945067 -277.480647 
L 294.851315 -280.103101 
L 297.757562 -282.727194 
L 300.663809 -285.351288 
L 303.570057 -287.975381 
L 306.476304 -290.599475 
L 309.382551 -293.223645 
L 312.288799 -295.847903 
L 315.195046 -298.472262 
L 318.101293 -301.096638 
L 321.00754 -303.721015 
L 323.913788 -306.347452 
L 326.820035 -308.971062 
L 329.726282 -311.594671 
L 332.63253 -314.21828 
L 335.538777 -316.842104 
L 338.445024 -319.466298 
L 341.351271 -322.090493 
L 344.257519 -324.715044 
L 347.163766 -327.341545 
L 350.070013 -329.966655 
L 350.070013 -341.845781 
L 350.070013 -341.845781 
L 347.163766 -339.088948 
L 344.257519 -336.332115 
L 341.351271 -333.575281 
L 338.445024 -330.818448 
L 335.538777 -328.061615 
L 332.63253 -325.304782 
L 329.726282 -322.547948 
L 326.820035 -319.791115 
L 323.913788 -317.034282 
L 321.00754 -314.277448 
L 318.101293 -311.520615 
L 315.195046 -308.763782 
L 312.288799 -306.006948 
L 309.382551 -303.250115 
L 306.476304 -300.493282 
L 303.570057 -297.731394 
L 300.663809 -294.969153 
L 297.757562 -292.206912 
L 294.851315 -289.444671 
L 291.945067 -286.68243 
L 289.03882 -283.920189 
L 286.132573 -281.157948 
L 283.226326 -278.395707 
L 280.320078 -275.633466 
L 277.413831 -272.871225 
L 274.507584 -270.108984 
L 271.601336 -267.350439 
L 268.695089 -264.597153 
L 265.788842 -261.843866 
L 262.882595 -259.09058 
L 259.976347 -256.337293 
L 257.0701 -253.584007 
L 254.163853 -250.830721 
L 251.257605 -248.077434 
L 248.351358 -245.324148 
L 245.445111 -242.570861 
L 242.538863 -239.817575 
L 239.632616 -237.064289 
L 236.726369 -234.311002 
L 233.820122 -231.557716 
L 230.913874 -228.804429 
L 228.007627 -226.051143 
L 225.10138 -223.297857 
L 222.195132 -220.54457 
L 219.288885 -217.791284 
L 216.382638 -215.035907 
L 213.476391 -212.279303 
L 210.570143 -209.5227 
L 207.663896 -206.766096 
L 204.757649 -204.009492 
L 201.851401 -201.256043 
L 198.945154 -198.506022 
L 196.038907 -195.756001 
L 193.132659 -193.005981 
L 190.226412 -190.25596 
L 187.320165 -187.50594 
L 184.413918 -184.75294 
L 181.50767 -181.999677 
L 178.601423 -179.2274 
L 175.695176 -176.464935 
L 172.788928 -173.710907 
L 169.882681 -170.956879 
L 166.976434 -168.202852 
L 164.070187 -165.448705 
L 161.163939 -162.694291 
L 158.257692 -159.938475 
L 155.351445 -157.169846 
L 152.445197 -154.403628 
L 149.53895 -151.635498 
L 146.632703 -148.889047 
L 143.726455 -146.144205 
L 140.820208 -143.390939 
L 137.913961 -140.637302 
L 135.007714 -137.883451 
L 132.101466 -135.139159 
L 129.195219 -132.405303 
L 126.288972 -129.676839 
L 123.382724 -126.929119 
L 120.476477 -124.172512 
L 117.57023 -121.417879 
L 114.663983 -118.699541 
L 111.757735 -115.974753 
L 108.851488 -113.266217 
L 105.945241 -110.585922 
L 103.038993 -107.956477 
L 100.132746 -105.313368 
L 97.226499 -102.662474 
L 94.320251 -100.02264 
L 91.414004 -97.386739 
L 88.507757 -94.767234 
L 85.60151 -92.125667 
L 82.695262 -89.477553 
L 79.789015 -86.829431 
L 76.882768 -84.181179 
L 73.97652 -81.547803 
L 71.070273 -78.915028 
L 68.164026 -76.282253 
L 65.257779 -73.649401 
L 62.351531 -71.017292 
z
" id="mf4f601784b" style="stroke:#ffffff;stroke-opacity:0.15;"/>
    </defs>
    <g clip-path="url(#pd21c0fa27f)">
     <use style="fill:#f77189;fill-opacity:0.15;stroke:#ffffff;stroke-opacity:0.15;" x="0" xlink:href="#mf4f601784b" y="385.791781"/>
    </g>
   </g>
   <g id="line2d_11">
    <path clip-path="url(#pd21c0fa27f)" d="M 62.351531 315.614458 
L 65.257779 312.968785 
L 68.164026 310.323112 
L 71.070273 307.677439 
L 73.97652 305.031765 
L 76.882768 302.386092 
L 79.789015 299.740419 
L 82.695262 297.094746 
L 85.60151 294.449072 
L 88.507757 291.803399 
L 91.414004 289.157726 
L 94.320251 286.512053 
L 97.226499 283.86638 
L 100.132746 281.220706 
L 103.038993 278.575033 
L 105.945241 275.92936 
L 108.851488 273.283687 
L 111.757735 270.638013 
L 114.663983 267.99234 
L 117.57023 265.346667 
L 120.476477 262.700994 
L 123.382724 260.055321 
L 126.288972 257.409647 
L 129.195219 254.763974 
L 132.101466 252.118301 
L 135.007714 249.472628 
L 137.913961 246.826954 
L 140.820208 244.181281 
L 143.726455 241.535608 
L 146.632703 238.889935 
L 149.53895 236.244262 
L 152.445197 233.598588 
L 155.351445 230.952915 
L 158.257692 228.307242 
L 161.163939 225.661569 
L 164.070187 223.015895 
L 166.976434 220.370222 
L 169.882681 217.724549 
L 172.788928 215.078876 
L 175.695176 212.433203 
L 178.601423 209.787529 
L 181.50767 207.141856 
L 184.413918 204.496183 
L 187.320165 201.85051 
L 190.226412 199.204836 
L 193.132659 196.559163 
L 196.038907 193.91349 
L 198.945154 191.267817 
L 201.851401 188.622144 
L 204.757649 185.97647 
L 207.663896 183.330797 
L 210.570143 180.685124 
L 213.476391 178.039451 
L 216.382638 175.393777 
L 219.288885 172.748104 
L 222.195132 170.102431 
L 225.10138 167.456758 
L 228.007627 164.811085 
L 230.913874 162.165411 
L 233.820122 159.519738 
L 236.726369 156.874065 
L 239.632616 154.228392 
L 242.538863 151.582718 
L 245.445111 148.937045 
L 248.351358 146.291372 
L 251.257605 143.645699 
L 254.163853 141.000026 
L 257.0701 138.354352 
L 259.976347 135.708679 
L 262.882595 133.063006 
L 265.788842 130.417333 
L 268.695089 127.771659 
L 271.601336 125.125986 
L 274.507584 122.480313 
L 277.413831 119.83464 
L 280.320078 117.188967 
L 283.226326 114.543293 
L 286.132573 111.89762 
L 289.03882 109.251947 
L 291.945067 106.606274 
L 294.851315 103.9606 
L 297.757562 101.314927 
L 300.663809 98.669254 
L 303.570057 96.023581 
L 306.476304 93.377908 
L 309.382551 90.732234 
L 312.288799 88.086561 
L 315.195046 85.440888 
L 318.101293 82.795215 
L 321.00754 80.149541 
L 323.913788 77.503868 
L 326.820035 74.858195 
L 329.726282 72.212522 
L 332.63253 69.566849 
L 335.538777 66.921175 
L 338.445024 64.275502 
L 341.351271 61.629829 
L 344.257519 58.984156 
L 347.163766 56.338482 
L 350.070013 53.692809 
" style="fill:none;stroke:#f77189;stroke-linecap:round;stroke-width:2.25;"/>
   </g>
   <g id="patch_3">
    <path d="M 62.351531 330.512 
L 62.351531 30.3 
" style="fill:none;stroke:#ffffff;stroke-linecap:square;stroke-linejoin:miter;stroke-width:1.25;"/>
   </g>
   <g id="patch_4">
    <path d="M 62.351531 330.512 
L 350.070013 330.512 
" style="fill:none;stroke:#ffffff;stroke-linecap:square;stroke-linejoin:miter;stroke-width:1.25;"/>
   </g>
   <g id="text_13">
    <!-- $E_x\ vs\ \frac{1}{x}$ -->
    <g style="fill:#262626;" transform="translate(175.520772 24.3)scale(0.18 -0.18)">
     <defs>
      <path d="M 7.171875 54.6875 
L 16.703125 54.6875 
L 24.703125 8.203125 
L 50.875 54.6875 
L 60.40625 54.6875 
L 29.296875 0 
L 17.1875 0 
z
" id="DejaVuSans-Oblique-118"/>
      <path d="M 50 53.078125 
L 48.296875 44.578125 
Q 44.734375 46.53125 40.765625 47.5 
Q 36.8125 48.484375 32.625 48.484375 
Q 25.53125 48.484375 21.453125 46.0625 
Q 17.390625 43.65625 17.390625 39.5 
Q 17.390625 34.671875 26.859375 32.078125 
Q 27.59375 31.890625 27.9375 31.78125 
L 30.8125 30.90625 
Q 39.796875 28.421875 42.796875 25.6875 
Q 45.796875 22.953125 45.796875 18.21875 
Q 45.796875 9.515625 38.890625 4.046875 
Q 31.984375 -1.421875 20.796875 -1.421875 
Q 16.453125 -1.421875 11.671875 -0.578125 
Q 6.890625 0.25 1.125 2 
L 2.875 11.28125 
Q 7.8125 8.734375 12.59375 7.421875 
Q 17.390625 6.109375 21.78125 6.109375 
Q 28.375 6.109375 32.5 8.9375 
Q 36.625 11.765625 36.625 16.109375 
Q 36.625 20.796875 25.78125 23.6875 
L 24.859375 23.921875 
L 21.78125 24.703125 
Q 14.9375 26.515625 11.765625 29.46875 
Q 8.59375 32.421875 8.59375 37.015625 
Q 8.59375 45.75 15.15625 50.875 
Q 21.734375 56 33.015625 56 
Q 37.453125 56 41.671875 55.265625 
Q 45.90625 54.546875 50 53.078125 
z
" id="DejaVuSans-Oblique-115"/>
     </defs>
     <use transform="translate(0 0.16875)" xlink:href="#DejaVuSans-Oblique-69"/>
     <use transform="translate(63.183594 -16.2375)scale(0.7)" xlink:href="#DejaVuSans-Oblique-120"/>
     <use transform="translate(139.814128 0.16875)" xlink:href="#DejaVuSans-Oblique-118"/>
     <use transform="translate(198.993816 0.16875)" xlink:href="#DejaVuSans-Oblique-115"/>
     <use transform="translate(283.563804 43.965625)scale(0.7)" xlink:href="#DejaVuSans-49"/>
     <use transform="translate(285.563804 -25.565625)scale(0.7)" xlink:href="#DejaVuSans-Oblique-120"/>
     <path d="M 283.563804 18.965625 
L 283.563804 25.215625 
L 328.099937 25.215625 
L 328.099937 18.965625 
L 283.563804 18.965625 
z
"/>
    </g>
   </g>
  </g>
 </g>
 <defs>
  <clipPath id="pd21c0fa27f">
   <rect height="300.212" width="287.718482" x="62.351531" y="30.3"/>
  </clipPath>
 </defs>
</svg>
