<?xml version="1.0" encoding="utf-8" standalone="no"?>
<!DOCTYPE svg PUBLIC "-//W3C//DTD SVG 1.1//EN"
  "http://www.w3.org/Graphics/SVG/1.1/DTD/svg11.dtd">
<!-- Created with matplotlib (https://matplotlib.org/) -->
<svg height="381.789594pt" version="1.1" viewBox="0 0 358.233383 381.789594" width="358.233383pt" xmlns="http://www.w3.org/2000/svg" xmlns:xlink="http://www.w3.org/1999/xlink">
 <metadata>
  <rdf:RDF xmlns:cc="http://creativecommons.org/ns#" xmlns:dc="http://purl.org/dc/elements/1.1/" xmlns:rdf="http://www.w3.org/1999/02/22-rdf-syntax-ns#">
   <cc:Work>
    <dc:type rdf:resource="http://purl.org/dc/dcmitype/StillImage"/>
    <dc:date>2021-03-05T01:08:49.624797</dc:date>
    <dc:format>image/svg+xml</dc:format>
    <dc:creator>
     <cc:Agent>
      <dc:title>Matplotlib v3.3.4, https://matplotlib.org/</dc:title>
     </cc:Agent>
    </dc:creator>
   </cc:Work>
  </rdf:RDF>
 </metadata>
 <defs>
  <style type="text/css">*{stroke-linecap:butt;stroke-linejoin:round;}</style>
 </defs>
 <g id="figure_1">
  <g id="patch_1">
   <path d="M 0 381.789594 
L 358.233383 381.789594 
L 358.233383 -0 
L 0 -0 
z
" style="fill:#ffffff;"/>
  </g>
  <g id="axes_1">
   <g id="patch_2">
    <path d="M 62.351531 331.240063 
L 350.070013 331.240063 
L 350.070013 31.028063 
L 62.351531 31.028063 
z
" style="fill:#eaeaf2;"/>
   </g>
   <g id="matplotlib.axis_1">
    <g id="xtick_1">
     <g id="line2d_1">
      <path clip-path="url(#p2aeea860dd)" d="M 81.267279 331.240063 
L 81.267279 31.028063 
" style="fill:none;stroke:#ffffff;stroke-linecap:round;"/>
     </g>
     <g id="text_1">
      <!-- 1 -->
      <g style="fill:#262626;" transform="translate(76.985357 351.763094)scale(0.154 -0.154)">
       <defs>
        <path d="M 37.25 0 
L 28.46875 0 
L 28.46875 56 
Q 25.296875 52.984375 20.140625 49.953125 
Q 14.984375 46.921875 10.890625 45.40625 
L 10.890625 53.90625 
Q 18.265625 57.375 23.78125 62.296875 
Q 29.296875 67.234375 31.59375 71.875 
L 37.25 71.875 
z
" id="ArialMT-49"/>
       </defs>
       <use xlink:href="#ArialMT-49"/>
      </g>
     </g>
    </g>
    <g id="xtick_2">
     <g id="line2d_2">
      <path clip-path="url(#p2aeea860dd)" d="M 147.638325 331.240063 
L 147.638325 31.028063 
" style="fill:none;stroke:#ffffff;stroke-linecap:round;"/>
     </g>
     <g id="text_2">
      <!-- 2 -->
      <g style="fill:#262626;" transform="translate(143.356403 351.763094)scale(0.154 -0.154)">
       <defs>
        <path d="M 50.34375 8.453125 
L 50.34375 0 
L 3.03125 0 
Q 2.9375 3.171875 4.046875 6.109375 
Q 5.859375 10.9375 9.828125 15.625 
Q 13.8125 20.3125 21.34375 26.46875 
Q 33.015625 36.03125 37.109375 41.625 
Q 41.21875 47.21875 41.21875 52.203125 
Q 41.21875 57.421875 37.46875 61 
Q 33.734375 64.59375 27.734375 64.59375 
Q 21.390625 64.59375 17.578125 60.78125 
Q 13.765625 56.984375 13.71875 50.25 
L 4.6875 51.171875 
Q 5.609375 61.28125 11.65625 66.578125 
Q 17.71875 71.875 27.9375 71.875 
Q 38.234375 71.875 44.234375 66.15625 
Q 50.25 60.453125 50.25 52 
Q 50.25 47.703125 48.484375 43.546875 
Q 46.734375 39.40625 42.65625 34.8125 
Q 38.578125 30.21875 29.109375 22.21875 
Q 21.1875 15.578125 18.9375 13.203125 
Q 16.703125 10.84375 15.234375 8.453125 
z
" id="ArialMT-50"/>
       </defs>
       <use xlink:href="#ArialMT-50"/>
      </g>
     </g>
    </g>
    <g id="xtick_3">
     <g id="line2d_3">
      <path clip-path="url(#p2aeea860dd)" d="M 214.00937 331.240063 
L 214.00937 31.028063 
" style="fill:none;stroke:#ffffff;stroke-linecap:round;"/>
     </g>
     <g id="text_3">
      <!-- 3 -->
      <g style="fill:#262626;" transform="translate(209.727448 351.763094)scale(0.154 -0.154)">
       <defs>
        <path d="M 4.203125 18.890625 
L 12.984375 20.0625 
Q 14.5 12.59375 18.140625 9.296875 
Q 21.78125 6 27 6 
Q 33.203125 6 37.46875 10.296875 
Q 41.75 14.59375 41.75 20.953125 
Q 41.75 27 37.796875 30.921875 
Q 33.84375 34.859375 27.734375 34.859375 
Q 25.25 34.859375 21.53125 33.890625 
L 22.515625 41.609375 
Q 23.390625 41.5 23.921875 41.5 
Q 29.546875 41.5 34.03125 44.421875 
Q 38.53125 47.359375 38.53125 53.46875 
Q 38.53125 58.296875 35.25 61.46875 
Q 31.984375 64.65625 26.8125 64.65625 
Q 21.6875 64.65625 18.265625 61.421875 
Q 14.84375 58.203125 13.875 51.765625 
L 5.078125 53.328125 
Q 6.6875 62.15625 12.390625 67.015625 
Q 18.109375 71.875 26.609375 71.875 
Q 32.46875 71.875 37.390625 69.359375 
Q 42.328125 66.84375 44.9375 62.5 
Q 47.5625 58.15625 47.5625 53.265625 
Q 47.5625 48.640625 45.0625 44.828125 
Q 42.578125 41.015625 37.703125 38.765625 
Q 44.046875 37.3125 47.5625 32.6875 
Q 51.078125 28.078125 51.078125 21.140625 
Q 51.078125 11.765625 44.234375 5.25 
Q 37.40625 -1.265625 26.953125 -1.265625 
Q 17.53125 -1.265625 11.296875 4.34375 
Q 5.078125 9.96875 4.203125 18.890625 
z
" id="ArialMT-51"/>
       </defs>
       <use xlink:href="#ArialMT-51"/>
      </g>
     </g>
    </g>
    <g id="xtick_4">
     <g id="line2d_4">
      <path clip-path="url(#p2aeea860dd)" d="M 280.380416 331.240063 
L 280.380416 31.028063 
" style="fill:none;stroke:#ffffff;stroke-linecap:round;"/>
     </g>
     <g id="text_4">
      <!-- 4 -->
      <g style="fill:#262626;" transform="translate(276.098494 351.763094)scale(0.154 -0.154)">
       <defs>
        <path d="M 32.328125 0 
L 32.328125 17.140625 
L 1.265625 17.140625 
L 1.265625 25.203125 
L 33.9375 71.578125 
L 41.109375 71.578125 
L 41.109375 25.203125 
L 50.78125 25.203125 
L 50.78125 17.140625 
L 41.109375 17.140625 
L 41.109375 0 
z
M 32.328125 25.203125 
L 32.328125 57.46875 
L 9.90625 25.203125 
z
" id="ArialMT-52"/>
       </defs>
       <use xlink:href="#ArialMT-52"/>
      </g>
     </g>
    </g>
    <g id="xtick_5">
     <g id="line2d_5">
      <path clip-path="url(#p2aeea860dd)" d="M 346.751461 331.240063 
L 346.751461 31.028063 
" style="fill:none;stroke:#ffffff;stroke-linecap:round;"/>
     </g>
     <g id="text_5">
      <!-- 5 -->
      <g style="fill:#262626;" transform="translate(342.469539 351.763094)scale(0.154 -0.154)">
       <defs>
        <path d="M 4.15625 18.75 
L 13.375 19.53125 
Q 14.40625 12.796875 18.140625 9.390625 
Q 21.875 6 27.15625 6 
Q 33.5 6 37.890625 10.78125 
Q 42.28125 15.578125 42.28125 23.484375 
Q 42.28125 31 38.0625 35.34375 
Q 33.84375 39.703125 27 39.703125 
Q 22.75 39.703125 19.328125 37.765625 
Q 15.921875 35.84375 13.96875 32.765625 
L 5.71875 33.84375 
L 12.640625 70.609375 
L 48.25 70.609375 
L 48.25 62.203125 
L 19.671875 62.203125 
L 15.828125 42.96875 
Q 22.265625 47.46875 29.34375 47.46875 
Q 38.71875 47.46875 45.15625 40.96875 
Q 51.609375 34.46875 51.609375 24.265625 
Q 51.609375 14.546875 45.953125 7.46875 
Q 39.0625 -1.21875 27.15625 -1.21875 
Q 17.390625 -1.21875 11.203125 4.25 
Q 5.03125 9.71875 4.15625 18.75 
z
" id="ArialMT-53"/>
       </defs>
       <use xlink:href="#ArialMT-53"/>
      </g>
     </g>
    </g>
    <g id="text_6">
     <!-- 1/x (1/m) -->
     <g style="fill:#262626;" transform="translate(173.07671 371.053719)scale(0.168 -0.168)">
      <defs>
       <path d="M 0 -1.21875 
L 20.75 72.796875 
L 27.78125 72.796875 
L 7.078125 -1.21875 
z
" id="ArialMT-47"/>
       <path d="M 0.734375 0 
L 19.671875 26.953125 
L 2.15625 51.859375 
L 13.140625 51.859375 
L 21.09375 39.703125 
Q 23.34375 36.234375 24.703125 33.890625 
Q 26.859375 37.109375 28.65625 39.59375 
L 37.40625 51.859375 
L 47.90625 51.859375 
L 29.984375 27.4375 
L 49.265625 0 
L 38.484375 0 
L 27.828125 16.109375 
L 25 20.453125 
L 11.375 0 
z
" id="ArialMT-120"/>
       <path id="ArialMT-32"/>
       <path d="M 23.390625 -21.046875 
Q 16.109375 -11.859375 11.078125 0.4375 
Q 6.0625 12.75 6.0625 25.921875 
Q 6.0625 37.546875 9.8125 48.1875 
Q 14.203125 60.546875 23.390625 72.796875 
L 29.6875 72.796875 
Q 23.78125 62.640625 21.875 58.296875 
Q 18.890625 51.5625 17.1875 44.234375 
Q 15.09375 35.109375 15.09375 25.875 
Q 15.09375 2.390625 29.6875 -21.046875 
z
" id="ArialMT-40"/>
       <path d="M 6.59375 0 
L 6.59375 51.859375 
L 14.453125 51.859375 
L 14.453125 44.578125 
Q 16.890625 48.390625 20.9375 50.703125 
Q 25 53.03125 30.171875 53.03125 
Q 35.9375 53.03125 39.625 50.640625 
Q 43.3125 48.25 44.828125 43.953125 
Q 50.984375 53.03125 60.84375 53.03125 
Q 68.5625 53.03125 72.703125 48.75 
Q 76.859375 44.484375 76.859375 35.59375 
L 76.859375 0 
L 68.109375 0 
L 68.109375 32.671875 
Q 68.109375 37.9375 67.25 40.25 
Q 66.40625 42.578125 64.15625 43.984375 
Q 61.921875 45.40625 58.890625 45.40625 
Q 53.421875 45.40625 49.796875 41.765625 
Q 46.1875 38.140625 46.1875 30.125 
L 46.1875 0 
L 37.40625 0 
L 37.40625 33.6875 
Q 37.40625 39.546875 35.25 42.46875 
Q 33.109375 45.40625 28.21875 45.40625 
Q 24.515625 45.40625 21.359375 43.453125 
Q 18.21875 41.5 16.796875 37.734375 
Q 15.375 33.984375 15.375 26.90625 
L 15.375 0 
z
" id="ArialMT-109"/>
       <path d="M 12.359375 -21.046875 
L 6.0625 -21.046875 
Q 20.65625 2.390625 20.65625 25.875 
Q 20.65625 35.0625 18.5625 44.09375 
Q 16.890625 51.421875 13.921875 58.15625 
Q 12.015625 62.546875 6.0625 72.796875 
L 12.359375 72.796875 
Q 21.53125 60.546875 25.921875 48.1875 
Q 29.6875 37.546875 29.6875 25.921875 
Q 29.6875 12.75 24.625 0.4375 
Q 19.578125 -11.859375 12.359375 -21.046875 
z
" id="ArialMT-41"/>
      </defs>
      <use xlink:href="#ArialMT-49"/>
      <use x="55.615234" xlink:href="#ArialMT-47"/>
      <use x="83.398438" xlink:href="#ArialMT-120"/>
      <use x="133.398438" xlink:href="#ArialMT-32"/>
      <use x="161.181641" xlink:href="#ArialMT-40"/>
      <use x="194.482422" xlink:href="#ArialMT-49"/>
      <use x="250.097656" xlink:href="#ArialMT-47"/>
      <use x="277.880859" xlink:href="#ArialMT-109"/>
      <use x="361.181641" xlink:href="#ArialMT-41"/>
     </g>
    </g>
   </g>
   <g id="matplotlib.axis_2">
    <g id="ytick_1">
     <g id="line2d_6">
      <path clip-path="url(#p2aeea860dd)" d="M 62.351531 301.346182 
L 350.070013 301.346182 
" style="fill:none;stroke:#ffffff;stroke-linecap:round;"/>
     </g>
     <g id="text_7">
      <!-- 100 -->
      <g style="fill:#262626;" transform="translate(27.16 306.857698)scale(0.154 -0.154)">
       <defs>
        <path d="M 4.15625 35.296875 
Q 4.15625 48 6.765625 55.734375 
Q 9.375 63.484375 14.515625 67.671875 
Q 19.671875 71.875 27.484375 71.875 
Q 33.25 71.875 37.59375 69.546875 
Q 41.9375 67.234375 44.765625 62.859375 
Q 47.609375 58.5 49.21875 52.21875 
Q 50.828125 45.953125 50.828125 35.296875 
Q 50.828125 22.703125 48.234375 14.96875 
Q 45.65625 7.234375 40.5 3 
Q 35.359375 -1.21875 27.484375 -1.21875 
Q 17.140625 -1.21875 11.234375 6.203125 
Q 4.15625 15.140625 4.15625 35.296875 
z
M 13.1875 35.296875 
Q 13.1875 17.671875 17.3125 11.828125 
Q 21.4375 6 27.484375 6 
Q 33.546875 6 37.671875 11.859375 
Q 41.796875 17.71875 41.796875 35.296875 
Q 41.796875 52.984375 37.671875 58.78125 
Q 33.546875 64.59375 27.390625 64.59375 
Q 21.34375 64.59375 17.71875 59.46875 
Q 13.1875 52.9375 13.1875 35.296875 
z
" id="ArialMT-48"/>
       </defs>
       <use xlink:href="#ArialMT-49"/>
       <use x="55.615234" xlink:href="#ArialMT-48"/>
       <use x="111.230469" xlink:href="#ArialMT-48"/>
      </g>
     </g>
    </g>
    <g id="ytick_2">
     <g id="line2d_7">
      <path clip-path="url(#p2aeea860dd)" d="M 62.351531 244.486873 
L 350.070013 244.486873 
" style="fill:none;stroke:#ffffff;stroke-linecap:round;"/>
     </g>
     <g id="text_8">
      <!-- 200 -->
      <g style="fill:#262626;" transform="translate(27.16 249.998389)scale(0.154 -0.154)">
       <use xlink:href="#ArialMT-50"/>
       <use x="55.615234" xlink:href="#ArialMT-48"/>
       <use x="111.230469" xlink:href="#ArialMT-48"/>
      </g>
     </g>
    </g>
    <g id="ytick_3">
     <g id="line2d_8">
      <path clip-path="url(#p2aeea860dd)" d="M 62.351531 187.627564 
L 350.070013 187.627564 
" style="fill:none;stroke:#ffffff;stroke-linecap:round;"/>
     </g>
     <g id="text_9">
      <!-- 300 -->
      <g style="fill:#262626;" transform="translate(27.16 193.13908)scale(0.154 -0.154)">
       <use xlink:href="#ArialMT-51"/>
       <use x="55.615234" xlink:href="#ArialMT-48"/>
       <use x="111.230469" xlink:href="#ArialMT-48"/>
      </g>
     </g>
    </g>
    <g id="ytick_4">
     <g id="line2d_9">
      <path clip-path="url(#p2aeea860dd)" d="M 62.351531 130.768255 
L 350.070013 130.768255 
" style="fill:none;stroke:#ffffff;stroke-linecap:round;"/>
     </g>
     <g id="text_10">
      <!-- 400 -->
      <g style="fill:#262626;" transform="translate(27.16 136.279771)scale(0.154 -0.154)">
       <use xlink:href="#ArialMT-52"/>
       <use x="55.615234" xlink:href="#ArialMT-48"/>
       <use x="111.230469" xlink:href="#ArialMT-48"/>
      </g>
     </g>
    </g>
    <g id="ytick_5">
     <g id="line2d_10">
      <path clip-path="url(#p2aeea860dd)" d="M 62.351531 73.908946 
L 350.070013 73.908946 
" style="fill:none;stroke:#ffffff;stroke-linecap:round;"/>
     </g>
     <g id="text_11">
      <!-- 500 -->
      <g style="fill:#262626;" transform="translate(27.16 79.420461)scale(0.154 -0.154)">
       <use xlink:href="#ArialMT-53"/>
       <use x="55.615234" xlink:href="#ArialMT-48"/>
       <use x="111.230469" xlink:href="#ArialMT-48"/>
      </g>
     </g>
    </g>
    <g id="text_12">
     <!-- $E_x$ (V/m) -->
     <g style="fill:#262626;" transform="translate(19.464 213.054062)rotate(-90)scale(0.168 -0.168)">
      <defs>
       <path d="M 16.890625 72.90625 
L 62.984375 72.90625 
L 61.375 64.59375 
L 25.09375 64.59375 
L 20.90625 43.015625 
L 55.71875 43.015625 
L 54.109375 34.71875 
L 19.28125 34.71875 
L 14.203125 8.296875 
L 51.3125 8.296875 
L 49.703125 0 
L 2.6875 0 
z
" id="DejaVuSans-Oblique-69"/>
       <path d="M 60.015625 54.6875 
L 34.90625 27.875 
L 50.296875 0 
L 39.984375 0 
L 28.421875 21.6875 
L 8.296875 0 
L -2.59375 0 
L 24.3125 28.8125 
L 10.015625 54.6875 
L 20.3125 54.6875 
L 30.8125 34.90625 
L 49.125 54.6875 
z
" id="DejaVuSans-Oblique-120"/>
       <path d="M 28.171875 0 
L 0.4375 71.578125 
L 10.6875 71.578125 
L 29.296875 19.578125 
Q 31.546875 13.328125 33.0625 7.859375 
Q 34.71875 13.71875 36.921875 19.578125 
L 56.25 71.578125 
L 65.921875 71.578125 
L 37.890625 0 
z
" id="ArialMT-86"/>
      </defs>
      <use transform="translate(0 0.09375)" xlink:href="#DejaVuSans-Oblique-69"/>
      <use transform="translate(63.183594 -16.3125)scale(0.7)" xlink:href="#DejaVuSans-Oblique-120"/>
      <use transform="translate(107.34375 0.09375)" xlink:href="#ArialMT-32"/>
      <use transform="translate(135.126953 0.09375)" xlink:href="#ArialMT-40"/>
      <use transform="translate(168.427734 0.09375)" xlink:href="#ArialMT-86"/>
      <use transform="translate(235.126953 0.09375)" xlink:href="#ArialMT-47"/>
      <use transform="translate(262.910156 0.09375)" xlink:href="#ArialMT-109"/>
      <use transform="translate(346.210938 0.09375)" xlink:href="#ArialMT-41"/>
     </g>
    </g>
   </g>
   <g id="PathCollection_1">
    <defs>
     <path d="M 0 4.472136 
C 1.186024 4.472136 2.323632 4.000923 3.162278 3.162278 
C 4.000923 2.323632 4.472136 1.186024 4.472136 0 
C 4.472136 -1.186024 4.000923 -2.323632 3.162278 -3.162278 
C 2.323632 -4.000923 1.186024 -4.472136 0 -4.472136 
C -1.186024 -4.472136 -2.323632 -4.000923 -3.162278 -3.162278 
C -4.000923 -2.323632 -4.472136 -1.186024 -4.472136 0 
C -4.472136 1.186024 -4.000923 2.323632 -3.162278 3.162278 
C -2.323632 4.000923 -1.186024 4.472136 0 4.472136 
z
" id="me8207307af" style="stroke:#ffffff;stroke-opacity:0.8;stroke-width:0.7;"/>
    </defs>
    <g clip-path="url(#p2aeea860dd)">
     <use style="fill:#f77189;fill-opacity:0.8;stroke:#ffffff;stroke-opacity:0.8;stroke-width:0.7;" x="350.070013" xlink:href="#me8207307af" y="56.851153"/>
     <use style="fill:#f77189;fill-opacity:0.8;stroke:#ffffff;stroke-opacity:0.8;stroke-width:0.7;" x="233.920684" xlink:href="#me8207307af" y="159.197909"/>
     <use style="fill:#f77189;fill-opacity:0.8;stroke:#ffffff;stroke-opacity:0.8;stroke-width:0.7;" x="180.425621" xlink:href="#me8207307af" y="204.685357"/>
     <use style="fill:#f77189;fill-opacity:0.8;stroke:#ffffff;stroke-opacity:0.8;stroke-width:0.7;" x="148.169293" xlink:href="#me8207307af" y="237.663756"/>
     <use style="fill:#f77189;fill-opacity:0.8;stroke:#ffffff;stroke-opacity:0.8;stroke-width:0.7;" x="124.939427" xlink:href="#me8207307af" y="259.270294"/>
     <use style="fill:#f77189;fill-opacity:0.8;stroke:#ffffff;stroke-opacity:0.8;stroke-width:0.7;" x="109.607716" xlink:href="#me8207307af" y="273.485121"/>
     <use style="fill:#f77189;fill-opacity:0.8;stroke:#ffffff;stroke-opacity:0.8;stroke-width:0.7;" x="98.059154" xlink:href="#me8207307af" y="283.151203"/>
     <use style="fill:#f77189;fill-opacity:0.8;stroke:#ffffff;stroke-opacity:0.8;stroke-width:0.7;" x="88.368981" xlink:href="#me8207307af" y="292.817286"/>
     <use style="fill:#f77189;fill-opacity:0.8;stroke:#ffffff;stroke-opacity:0.8;stroke-width:0.7;" x="81.200908" xlink:href="#me8207307af" y="299.07181"/>
     <use style="fill:#f77189;fill-opacity:0.8;stroke:#ffffff;stroke-opacity:0.8;stroke-width:0.7;" x="74.497433" xlink:href="#me8207307af" y="306.349801"/>
     <use style="fill:#f77189;fill-opacity:0.8;stroke:#ffffff;stroke-opacity:0.8;stroke-width:0.7;" x="70.050573" xlink:href="#me8207307af" y="310.159375"/>
     <use style="fill:#f77189;fill-opacity:0.8;stroke:#ffffff;stroke-opacity:0.8;stroke-width:0.7;" x="65.935568" xlink:href="#me8207307af" y="313.968949"/>
     <use style="fill:#f77189;fill-opacity:0.8;stroke:#ffffff;stroke-opacity:0.8;stroke-width:0.7;" x="62.351531" xlink:href="#me8207307af" y="317.323648"/>
    </g>
   </g>
   <g id="PolyCollection_1">
    <defs>
     <path d="M 62.351531 -66.20958 
L 62.351531 -64.195531 
L 65.257779 -66.953773 
L 68.164026 -69.708112 
L 71.070273 -72.455352 
L 73.97652 -75.208721 
L 76.882768 -77.924863 
L 79.789015 -80.65166 
L 82.695262 -83.345303 
L 85.60151 -86.041275 
L 88.507757 -88.702309 
L 91.414004 -91.353054 
L 94.320251 -94.007809 
L 97.226499 -96.646591 
L 100.132746 -99.280026 
L 103.038993 -101.912145 
L 105.945241 -104.544265 
L 108.851488 -107.176434 
L 111.757735 -109.811069 
L 114.663983 -112.441763 
L 117.57023 -115.074665 
L 120.476477 -117.705175 
L 123.382724 -120.337264 
L 126.288972 -122.97213 
L 129.195219 -125.601654 
L 132.101466 -128.233806 
L 135.007714 -130.865965 
L 137.913961 -133.493936 
L 140.820208 -136.123005 
L 143.726455 -138.753596 
L 146.632703 -141.384959 
L 149.53895 -144.016287 
L 152.445197 -146.643485 
L 155.351445 -149.271972 
L 158.257692 -151.901711 
L 161.163939 -154.530595 
L 164.070187 -157.157172 
L 166.976434 -159.783816 
L 169.882681 -162.414219 
L 172.788928 -165.041809 
L 175.695176 -167.668107 
L 178.601423 -170.294972 
L 181.50767 -172.925285 
L 184.413918 -175.560082 
L 187.320165 -178.187004 
L 190.226412 -180.818149 
L 193.132659 -183.449527 
L 196.038907 -186.077033 
L 198.945154 -188.704539 
L 201.851401 -191.333207 
L 204.757649 -193.959383 
L 207.663896 -196.586729 
L 210.570143 -199.214125 
L 213.476391 -201.840676 
L 216.382638 -204.469102 
L 219.288885 -207.096492 
L 222.195132 -209.723883 
L 225.10138 -212.351273 
L 228.007627 -214.97888 
L 230.913874 -217.613396 
L 233.820122 -220.245025 
L 236.726369 -222.8702 
L 239.632616 -225.495375 
L 242.538863 -228.12055 
L 245.445111 -230.745725 
L 248.351358 -233.370963 
L 251.257605 -235.998346 
L 254.163853 -238.625717 
L 257.0701 -241.252059 
L 259.976347 -243.871975 
L 262.882595 -246.496451 
L 265.788842 -249.121558 
L 268.695089 -251.745049 
L 271.601336 -254.371772 
L 274.507584 -256.99688 
L 277.413831 -259.621987 
L 280.320078 -262.245359 
L 283.226326 -264.868244 
L 286.132573 -267.492917 
L 289.03882 -270.117673 
L 291.945067 -272.742341 
L 294.851315 -275.366458 
L 297.757562 -277.98908 
L 300.663809 -280.612767 
L 303.570057 -283.240345 
L 306.476304 -285.865929 
L 309.382551 -288.488402 
L 312.288799 -291.112544 
L 315.195046 -293.738219 
L 318.101293 -296.36454 
L 321.00754 -298.989668 
L 323.913788 -301.615162 
L 326.820035 -304.239097 
L 329.726282 -306.863731 
L 332.63253 -309.488365 
L 335.538777 -312.113051 
L 338.445024 -314.73781 
L 341.351271 -317.362569 
L 344.257519 -319.987362 
L 347.163766 -322.612175 
L 350.070013 -325.23957 
L 350.070013 -337.115531 
L 350.070013 -337.115531 
L 347.163766 -334.360581 
L 344.257519 -331.605631 
L 341.351271 -328.849402 
L 338.445024 -326.090982 
L 335.538777 -323.332563 
L 332.63253 -320.574143 
L 329.726282 -317.815724 
L 326.820035 -315.057305 
L 323.913788 -312.298885 
L 321.00754 -309.540466 
L 318.101293 -306.782046 
L 315.195046 -304.023627 
L 312.288799 -301.265207 
L 309.382551 -298.506788 
L 306.476304 -295.748369 
L 303.570057 -292.989949 
L 300.663809 -290.23153 
L 297.757562 -287.47311 
L 294.851315 -284.714691 
L 291.945067 -281.956271 
L 289.03882 -279.197852 
L 286.132573 -276.439433 
L 283.226326 -273.681013 
L 280.320078 -270.922594 
L 277.413831 -268.164174 
L 274.507584 -265.405755 
L 271.601336 -262.647335 
L 268.695089 -259.888916 
L 265.788842 -257.130497 
L 262.882595 -254.372077 
L 259.976347 -251.613658 
L 257.0701 -248.855238 
L 254.163853 -246.096819 
L 251.257605 -243.338399 
L 248.351358 -240.57998 
L 245.445111 -237.821561 
L 242.538863 -235.063141 
L 239.632616 -232.304722 
L 236.726369 -229.546302 
L 233.820122 -226.787874 
L 230.913874 -224.029317 
L 228.007627 -221.270741 
L 225.10138 -218.512164 
L 222.195132 -215.753588 
L 219.288885 -212.997706 
L 216.382638 -210.24278 
L 213.476391 -207.487855 
L 210.570143 -204.73293 
L 207.663896 -201.978005 
L 204.757649 -199.22308 
L 201.851401 -196.468155 
L 198.945154 -193.71323 
L 196.038907 -190.958305 
L 193.132659 -188.20338 
L 190.226412 -185.448455 
L 187.320165 -182.693529 
L 184.413918 -179.938604 
L 181.50767 -177.185294 
L 178.601423 -174.43315 
L 175.695176 -171.681006 
L 172.788928 -168.928861 
L 169.882681 -166.176548 
L 166.976434 -163.415651 
L 164.070187 -160.662572 
L 161.163939 -157.911892 
L 158.257692 -155.161212 
L 155.351445 -152.410532 
L 152.445197 -149.659477 
L 149.53895 -146.892017 
L 146.632703 -144.126028 
L 143.726455 -141.373584 
L 140.820208 -138.622928 
L 137.913961 -135.868134 
L 135.007714 -133.109184 
L 132.101466 -130.352113 
L 129.195219 -127.593087 
L 126.288972 -124.842335 
L 123.382724 -122.095997 
L 120.476477 -119.369986 
L 117.57023 -116.625699 
L 114.663983 -113.901307 
L 111.757735 -111.18765 
L 108.851488 -108.493495 
L 105.945241 -105.80792 
L 103.038993 -103.137119 
L 100.132746 -100.503715 
L 97.226499 -97.875256 
L 94.320251 -95.229995 
L 91.414004 -92.572755 
L 88.507757 -89.932517 
L 85.60151 -87.285154 
L 82.695262 -84.642882 
L 79.789015 -82.015565 
L 76.882768 -79.388835 
L 73.97652 -76.753215 
L 71.070273 -74.117118 
L 68.164026 -71.481147 
L 65.257779 -68.845363 
L 62.351531 -66.20958 
z
" id="m1a94403d91" style="stroke:#ffffff;stroke-opacity:0.15;"/>
    </defs>
    <g clip-path="url(#p2aeea860dd)">
     <use style="fill:#f77189;fill-opacity:0.15;stroke:#ffffff;stroke-opacity:0.15;" x="0" xlink:href="#m1a94403d91" y="381.789594"/>
    </g>
   </g>
   <g id="line2d_11">
    <path clip-path="url(#p2aeea860dd)" d="M 62.351531 316.336874 
L 65.257779 313.691231 
L 68.164026 311.045588 
L 71.070273 308.399945 
L 73.97652 305.754302 
L 76.882768 303.108658 
L 79.789015 300.463015 
L 82.695262 297.817372 
L 85.60151 295.171729 
L 88.507757 292.526086 
L 91.414004 289.880443 
L 94.320251 287.234799 
L 97.226499 284.589156 
L 100.132746 281.943513 
L 103.038993 279.29787 
L 105.945241 276.652227 
L 108.851488 274.006584 
L 111.757735 271.36094 
L 114.663983 268.715297 
L 117.57023 266.069654 
L 120.476477 263.424011 
L 123.382724 260.778368 
L 126.288972 258.132725 
L 129.195219 255.487081 
L 132.101466 252.841438 
L 135.007714 250.195795 
L 137.913961 247.550152 
L 140.820208 244.904509 
L 143.726455 242.258866 
L 146.632703 239.613222 
L 149.53895 236.967579 
L 152.445197 234.321936 
L 155.351445 231.676293 
L 158.257692 229.03065 
L 161.163939 226.385007 
L 164.070187 223.739363 
L 166.976434 221.09372 
L 169.882681 218.448077 
L 172.788928 215.802434 
L 175.695176 213.156791 
L 178.601423 210.511148 
L 181.50767 207.865504 
L 184.413918 205.219861 
L 187.320165 202.574218 
L 190.226412 199.928575 
L 193.132659 197.282932 
L 196.038907 194.637289 
L 198.945154 191.991645 
L 201.851401 189.346002 
L 204.757649 186.700359 
L 207.663896 184.054716 
L 210.570143 181.409073 
L 213.476391 178.76343 
L 216.382638 176.117787 
L 219.288885 173.472143 
L 222.195132 170.8265 
L 225.10138 168.180857 
L 228.007627 165.535214 
L 230.913874 162.889571 
L 233.820122 160.243928 
L 236.726369 157.598284 
L 239.632616 154.952641 
L 242.538863 152.306998 
L 245.445111 149.661355 
L 248.351358 147.015712 
L 251.257605 144.370069 
L 254.163853 141.724425 
L 257.0701 139.078782 
L 259.976347 136.433139 
L 262.882595 133.787496 
L 265.788842 131.141853 
L 268.695089 128.49621 
L 271.601336 125.850566 
L 274.507584 123.204923 
L 277.413831 120.55928 
L 280.320078 117.913637 
L 283.226326 115.267994 
L 286.132573 112.622351 
L 289.03882 109.976707 
L 291.945067 107.331064 
L 294.851315 104.685421 
L 297.757562 102.039778 
L 300.663809 99.394135 
L 303.570057 96.748492 
L 306.476304 94.102848 
L 309.382551 91.457205 
L 312.288799 88.811562 
L 315.195046 86.165919 
L 318.101293 83.520276 
L 321.00754 80.874633 
L 323.913788 78.228989 
L 326.820035 75.583346 
L 329.726282 72.937703 
L 332.63253 70.29206 
L 335.538777 67.646417 
L 338.445024 65.000774 
L 341.351271 62.35513 
L 344.257519 59.709487 
L 347.163766 57.063844 
L 350.070013 54.418201 
" style="fill:none;stroke:#f77189;stroke-linecap:round;stroke-width:2.25;"/>
   </g>
   <g id="patch_3">
    <path d="M 62.351531 331.240062 
L 62.351531 31.028063 
" style="fill:none;stroke:#ffffff;stroke-linecap:square;stroke-linejoin:miter;stroke-width:1.25;"/>
   </g>
   <g id="patch_4">
    <path d="M 62.351531 331.240063 
L 350.070013 331.240063 
" style="fill:none;stroke:#ffffff;stroke-linecap:square;stroke-linejoin:miter;stroke-width:1.25;"/>
   </g>
  </g>
  <g id="text_13">
   <!-- $E_x\ vs\ 1/x$ -->
   <g style="fill:#262626;" transform="translate(149.517531 20.084062)scale(0.18 -0.18)">
    <defs>
     <path d="M 7.171875 54.6875 
L 16.703125 54.6875 
L 24.703125 8.203125 
L 50.875 54.6875 
L 60.40625 54.6875 
L 29.296875 0 
L 17.1875 0 
z
" id="DejaVuSans-Oblique-118"/>
     <path d="M 50 53.078125 
L 48.296875 44.578125 
Q 44.734375 46.53125 40.765625 47.5 
Q 36.8125 48.484375 32.625 48.484375 
Q 25.53125 48.484375 21.453125 46.0625 
Q 17.390625 43.65625 17.390625 39.5 
Q 17.390625 34.671875 26.859375 32.078125 
Q 27.59375 31.890625 27.9375 31.78125 
L 30.8125 30.90625 
Q 39.796875 28.421875 42.796875 25.6875 
Q 45.796875 22.953125 45.796875 18.21875 
Q 45.796875 9.515625 38.890625 4.046875 
Q 31.984375 -1.421875 20.796875 -1.421875 
Q 16.453125 -1.421875 11.671875 -0.578125 
Q 6.890625 0.25 1.125 2 
L 2.875 11.28125 
Q 7.8125 8.734375 12.59375 7.421875 
Q 17.390625 6.109375 21.78125 6.109375 
Q 28.375 6.109375 32.5 8.9375 
Q 36.625 11.765625 36.625 16.109375 
Q 36.625 20.796875 25.78125 23.6875 
L 24.859375 23.921875 
L 21.78125 24.703125 
Q 14.9375 26.515625 11.765625 29.46875 
Q 8.59375 32.421875 8.59375 37.015625 
Q 8.59375 45.75 15.15625 50.875 
Q 21.734375 56 33.015625 56 
Q 37.453125 56 41.671875 55.265625 
Q 45.90625 54.546875 50 53.078125 
z
" id="DejaVuSans-Oblique-115"/>
     <path d="M 12.40625 8.296875 
L 28.515625 8.296875 
L 28.515625 63.921875 
L 10.984375 60.40625 
L 10.984375 69.390625 
L 28.421875 72.90625 
L 38.28125 72.90625 
L 38.28125 8.296875 
L 54.390625 8.296875 
L 54.390625 0 
L 12.40625 0 
z
" id="DejaVuSans-49"/>
     <path d="M 25.390625 72.90625 
L 33.6875 72.90625 
L 8.296875 -9.28125 
L 0 -9.28125 
z
" id="DejaVuSans-47"/>
    </defs>
    <use transform="translate(0 0.09375)" xlink:href="#DejaVuSans-Oblique-69"/>
    <use transform="translate(63.183594 -16.3125)scale(0.7)" xlink:href="#DejaVuSans-Oblique-120"/>
    <use transform="translate(139.814128 0.09375)" xlink:href="#DejaVuSans-Oblique-118"/>
    <use transform="translate(198.993816 0.09375)" xlink:href="#DejaVuSans-Oblique-115"/>
    <use transform="translate(283.563804 0.09375)" xlink:href="#DejaVuSans-49"/>
    <use transform="translate(347.186851 0.09375)" xlink:href="#DejaVuSans-47"/>
    <use transform="translate(380.878257 0.09375)" xlink:href="#DejaVuSans-Oblique-120"/>
   </g>
  </g>
 </g>
 <defs>
  <clipPath id="p2aeea860dd">
   <rect height="300.212" width="287.718482" x="62.351531" y="31.028063"/>
  </clipPath>
 </defs>
</svg>
