<?xml version="1.0" encoding="utf-8" standalone="no"?>
<!DOCTYPE svg PUBLIC "-//W3C//DTD SVG 1.1//EN"
  "http://www.w3.org/Graphics/SVG/1.1/DTD/svg11.dtd">
<!-- Created with matplotlib (https://matplotlib.org/) -->
<svg height="293.671969pt" version="1.1" viewBox="0 0 404.015531 293.671969" width="404.015531pt" xmlns="http://www.w3.org/2000/svg" xmlns:xlink="http://www.w3.org/1999/xlink">
 <metadata>
  <rdf:RDF xmlns:cc="http://creativecommons.org/ns#" xmlns:dc="http://purl.org/dc/elements/1.1/" xmlns:rdf="http://www.w3.org/1999/02/22-rdf-syntax-ns#">
   <cc:Work>
    <dc:type rdf:resource="http://purl.org/dc/dcmitype/StillImage"/>
    <dc:date>2021-03-05T12:08:49.654438</dc:date>
    <dc:format>image/svg+xml</dc:format>
    <dc:creator>
     <cc:Agent>
      <dc:title>Matplotlib v3.3.4, https://matplotlib.org/</dc:title>
     </cc:Agent>
    </dc:creator>
   </cc:Work>
  </rdf:RDF>
 </metadata>
 <defs>
  <style type="text/css">*{stroke-linecap:butt;stroke-linejoin:round;}</style>
 </defs>
 <g id="figure_1">
  <g id="patch_1">
   <path d="M 0 293.671969 
L 404.015531 293.671969 
L 404.015531 0 
L 0 0 
z
" style="fill:#ffffff;"/>
  </g>
  <g id="axes_1">
   <g id="patch_2">
    <path d="M 62.015531 243.524062 
L 396.815531 243.524062 
L 396.815531 26.084062 
L 62.015531 26.084062 
z
" style="fill:#eaeaf2;"/>
   </g>
   <g id="matplotlib.axis_1">
    <g id="xtick_1">
     <g id="line2d_1">
      <path clip-path="url(#pa72a7b712a)" d="M 104.048675 243.524062 
L 104.048675 26.084062 
" style="fill:none;stroke:#ffffff;stroke-linecap:round;"/>
     </g>
     <g id="text_1">
      <!-- 0.4 -->
      <g style="fill:#262626;" transform="translate(93.345675 264.047094)scale(0.154 -0.154)">
       <defs>
        <path d="M 4.15625 35.296875 
Q 4.15625 48 6.765625 55.734375 
Q 9.375 63.484375 14.515625 67.671875 
Q 19.671875 71.875 27.484375 71.875 
Q 33.25 71.875 37.59375 69.546875 
Q 41.9375 67.234375 44.765625 62.859375 
Q 47.609375 58.5 49.21875 52.21875 
Q 50.828125 45.953125 50.828125 35.296875 
Q 50.828125 22.703125 48.234375 14.96875 
Q 45.65625 7.234375 40.5 3 
Q 35.359375 -1.21875 27.484375 -1.21875 
Q 17.140625 -1.21875 11.234375 6.203125 
Q 4.15625 15.140625 4.15625 35.296875 
z
M 13.1875 35.296875 
Q 13.1875 17.671875 17.3125 11.828125 
Q 21.4375 6 27.484375 6 
Q 33.546875 6 37.671875 11.859375 
Q 41.796875 17.71875 41.796875 35.296875 
Q 41.796875 52.984375 37.671875 58.78125 
Q 33.546875 64.59375 27.390625 64.59375 
Q 21.34375 64.59375 17.71875 59.46875 
Q 13.1875 52.9375 13.1875 35.296875 
z
" id="ArialMT-48"/>
        <path d="M 9.078125 0 
L 9.078125 10.015625 
L 19.09375 10.015625 
L 19.09375 0 
z
" id="ArialMT-46"/>
        <path d="M 32.328125 0 
L 32.328125 17.140625 
L 1.265625 17.140625 
L 1.265625 25.203125 
L 33.9375 71.578125 
L 41.109375 71.578125 
L 41.109375 25.203125 
L 50.78125 25.203125 
L 50.78125 17.140625 
L 41.109375 17.140625 
L 41.109375 0 
z
M 32.328125 25.203125 
L 32.328125 57.46875 
L 9.90625 25.203125 
z
" id="ArialMT-52"/>
       </defs>
       <use xlink:href="#ArialMT-48"/>
       <use x="55.615234" xlink:href="#ArialMT-46"/>
       <use x="83.398438" xlink:href="#ArialMT-52"/>
      </g>
     </g>
    </g>
    <g id="xtick_2">
     <g id="line2d_2">
      <path clip-path="url(#pa72a7b712a)" d="M 159.337255 243.524062 
L 159.337255 26.084062 
" style="fill:none;stroke:#ffffff;stroke-linecap:round;"/>
     </g>
     <g id="text_2">
      <!-- 0.6 -->
      <g style="fill:#262626;" transform="translate(148.634255 264.047094)scale(0.154 -0.154)">
       <defs>
        <path d="M 49.75 54.046875 
L 41.015625 53.375 
Q 39.84375 58.546875 37.703125 60.890625 
Q 34.125 64.65625 28.90625 64.65625 
Q 24.703125 64.65625 21.53125 62.3125 
Q 17.390625 59.28125 14.984375 53.46875 
Q 12.59375 47.65625 12.5 36.921875 
Q 15.671875 41.75 20.265625 44.09375 
Q 24.859375 46.4375 29.890625 46.4375 
Q 38.671875 46.4375 44.84375 39.96875 
Q 51.03125 33.5 51.03125 23.25 
Q 51.03125 16.5 48.125 10.71875 
Q 45.21875 4.9375 40.140625 1.859375 
Q 35.0625 -1.21875 28.609375 -1.21875 
Q 17.625 -1.21875 10.6875 6.859375 
Q 3.765625 14.9375 3.765625 33.5 
Q 3.765625 54.25 11.421875 63.671875 
Q 18.109375 71.875 29.4375 71.875 
Q 37.890625 71.875 43.28125 67.140625 
Q 48.6875 62.40625 49.75 54.046875 
z
M 13.875 23.1875 
Q 13.875 18.65625 15.796875 14.5 
Q 17.71875 10.359375 21.1875 8.171875 
Q 24.65625 6 28.46875 6 
Q 34.03125 6 38.03125 10.484375 
Q 42.046875 14.984375 42.046875 22.703125 
Q 42.046875 30.125 38.078125 34.390625 
Q 34.125 38.671875 28.125 38.671875 
Q 22.171875 38.671875 18.015625 34.390625 
Q 13.875 30.125 13.875 23.1875 
z
" id="ArialMT-54"/>
       </defs>
       <use xlink:href="#ArialMT-48"/>
       <use x="55.615234" xlink:href="#ArialMT-46"/>
       <use x="83.398438" xlink:href="#ArialMT-54"/>
      </g>
     </g>
    </g>
    <g id="xtick_3">
     <g id="line2d_3">
      <path clip-path="url(#pa72a7b712a)" d="M 214.625836 243.524062 
L 214.625836 26.084062 
" style="fill:none;stroke:#ffffff;stroke-linecap:round;"/>
     </g>
     <g id="text_3">
      <!-- 0.8 -->
      <g style="fill:#262626;" transform="translate(203.922836 264.047094)scale(0.154 -0.154)">
       <defs>
        <path d="M 17.671875 38.8125 
Q 12.203125 40.828125 9.5625 44.53125 
Q 6.9375 48.25 6.9375 53.421875 
Q 6.9375 61.234375 12.546875 66.546875 
Q 18.171875 71.875 27.484375 71.875 
Q 36.859375 71.875 42.578125 66.421875 
Q 48.296875 60.984375 48.296875 53.171875 
Q 48.296875 48.1875 45.671875 44.5 
Q 43.0625 40.828125 37.75 38.8125 
Q 44.34375 36.671875 47.78125 31.875 
Q 51.21875 27.09375 51.21875 20.453125 
Q 51.21875 11.28125 44.71875 5.03125 
Q 38.234375 -1.21875 27.640625 -1.21875 
Q 17.046875 -1.21875 10.546875 5.046875 
Q 4.046875 11.328125 4.046875 20.703125 
Q 4.046875 27.6875 7.59375 32.390625 
Q 11.140625 37.109375 17.671875 38.8125 
z
M 15.921875 53.71875 
Q 15.921875 48.640625 19.1875 45.40625 
Q 22.46875 42.1875 27.6875 42.1875 
Q 32.765625 42.1875 36.015625 45.375 
Q 39.265625 48.578125 39.265625 53.21875 
Q 39.265625 58.0625 35.90625 61.359375 
Q 32.5625 64.65625 27.59375 64.65625 
Q 22.5625 64.65625 19.234375 61.421875 
Q 15.921875 58.203125 15.921875 53.71875 
z
M 13.09375 20.65625 
Q 13.09375 16.890625 14.875 13.375 
Q 16.65625 9.859375 20.171875 7.921875 
Q 23.6875 6 27.734375 6 
Q 34.03125 6 38.125 10.046875 
Q 42.234375 14.109375 42.234375 20.359375 
Q 42.234375 26.703125 38.015625 30.859375 
Q 33.796875 35.015625 27.4375 35.015625 
Q 21.234375 35.015625 17.15625 30.90625 
Q 13.09375 26.8125 13.09375 20.65625 
z
" id="ArialMT-56"/>
       </defs>
       <use xlink:href="#ArialMT-48"/>
       <use x="55.615234" xlink:href="#ArialMT-46"/>
       <use x="83.398438" xlink:href="#ArialMT-56"/>
      </g>
     </g>
    </g>
    <g id="xtick_4">
     <g id="line2d_4">
      <path clip-path="url(#pa72a7b712a)" d="M 269.914417 243.524062 
L 269.914417 26.084062 
" style="fill:none;stroke:#ffffff;stroke-linecap:round;"/>
     </g>
     <g id="text_4">
      <!-- 1.0 -->
      <g style="fill:#262626;" transform="translate(259.211417 264.047094)scale(0.154 -0.154)">
       <defs>
        <path d="M 37.25 0 
L 28.46875 0 
L 28.46875 56 
Q 25.296875 52.984375 20.140625 49.953125 
Q 14.984375 46.921875 10.890625 45.40625 
L 10.890625 53.90625 
Q 18.265625 57.375 23.78125 62.296875 
Q 29.296875 67.234375 31.59375 71.875 
L 37.25 71.875 
z
" id="ArialMT-49"/>
       </defs>
       <use xlink:href="#ArialMT-49"/>
       <use x="55.615234" xlink:href="#ArialMT-46"/>
       <use x="83.398438" xlink:href="#ArialMT-48"/>
      </g>
     </g>
    </g>
    <g id="xtick_5">
     <g id="line2d_5">
      <path clip-path="url(#pa72a7b712a)" d="M 325.202997 243.524062 
L 325.202997 26.084062 
" style="fill:none;stroke:#ffffff;stroke-linecap:round;"/>
     </g>
     <g id="text_5">
      <!-- 1.2 -->
      <g style="fill:#262626;" transform="translate(314.499997 264.047094)scale(0.154 -0.154)">
       <defs>
        <path d="M 50.34375 8.453125 
L 50.34375 0 
L 3.03125 0 
Q 2.9375 3.171875 4.046875 6.109375 
Q 5.859375 10.9375 9.828125 15.625 
Q 13.8125 20.3125 21.34375 26.46875 
Q 33.015625 36.03125 37.109375 41.625 
Q 41.21875 47.21875 41.21875 52.203125 
Q 41.21875 57.421875 37.46875 61 
Q 33.734375 64.59375 27.734375 64.59375 
Q 21.390625 64.59375 17.578125 60.78125 
Q 13.765625 56.984375 13.71875 50.25 
L 4.6875 51.171875 
Q 5.609375 61.28125 11.65625 66.578125 
Q 17.71875 71.875 27.9375 71.875 
Q 38.234375 71.875 44.234375 66.15625 
Q 50.25 60.453125 50.25 52 
Q 50.25 47.703125 48.484375 43.546875 
Q 46.734375 39.40625 42.65625 34.8125 
Q 38.578125 30.21875 29.109375 22.21875 
Q 21.1875 15.578125 18.9375 13.203125 
Q 16.703125 10.84375 15.234375 8.453125 
z
" id="ArialMT-50"/>
       </defs>
       <use xlink:href="#ArialMT-49"/>
       <use x="55.615234" xlink:href="#ArialMT-46"/>
       <use x="83.398438" xlink:href="#ArialMT-50"/>
      </g>
     </g>
    </g>
    <g id="xtick_6">
     <g id="line2d_6">
      <path clip-path="url(#pa72a7b712a)" d="M 380.491578 243.524062 
L 380.491578 26.084062 
" style="fill:none;stroke:#ffffff;stroke-linecap:round;"/>
     </g>
     <g id="text_6">
      <!-- 1.4 -->
      <g style="fill:#262626;" transform="translate(369.788578 264.047094)scale(0.154 -0.154)">
       <use xlink:href="#ArialMT-49"/>
       <use x="55.615234" xlink:href="#ArialMT-46"/>
       <use x="83.398438" xlink:href="#ArialMT-52"/>
      </g>
     </g>
    </g>
    <g id="text_7">
     <!-- $x (m)$ -->
     <g style="fill:#262626;" transform="translate(209.675531 283.132969)scale(0.168 -0.168)">
      <defs>
       <path d="M 60.015625 54.6875 
L 34.90625 27.875 
L 50.296875 0 
L 39.984375 0 
L 28.421875 21.6875 
L 8.296875 0 
L -2.59375 0 
L 24.3125 28.8125 
L 10.015625 54.6875 
L 20.3125 54.6875 
L 30.8125 34.90625 
L 49.125 54.6875 
z
" id="DejaVuSans-Oblique-120"/>
       <path d="M 31 75.875 
Q 24.46875 64.65625 21.28125 53.65625 
Q 18.109375 42.671875 18.109375 31.390625 
Q 18.109375 20.125 21.3125 9.0625 
Q 24.515625 -2 31 -13.1875 
L 23.1875 -13.1875 
Q 15.875 -1.703125 12.234375 9.375 
Q 8.59375 20.453125 8.59375 31.390625 
Q 8.59375 42.28125 12.203125 53.3125 
Q 15.828125 64.359375 23.1875 75.875 
z
" id="DejaVuSans-40"/>
       <path d="M 89.796875 33.015625 
L 83.40625 0 
L 74.421875 0 
L 80.71875 32.71875 
Q 81.109375 34.8125 81.296875 36.328125 
Q 81.5 37.84375 81.5 38.921875 
Q 81.5 43.3125 79.046875 45.75 
Q 76.609375 48.1875 72.21875 48.1875 
Q 65.671875 48.1875 60.546875 43.28125 
Q 55.421875 38.375 53.90625 30.515625 
L 47.90625 0 
L 38.921875 0 
L 45.3125 32.71875 
Q 45.703125 34.515625 45.890625 36.046875 
Q 46.09375 37.59375 46.09375 38.8125 
Q 46.09375 43.265625 43.65625 45.71875 
Q 41.21875 48.1875 36.921875 48.1875 
Q 30.28125 48.1875 25.140625 43.28125 
Q 20.015625 38.375 18.5 30.515625 
L 12.5 0 
L 3.515625 0 
L 14.203125 54.6875 
L 23.1875 54.6875 
L 21.484375 46.1875 
Q 25.140625 50.984375 30.046875 53.484375 
Q 34.96875 56 40.578125 56 
Q 46.53125 56 50.359375 52.875 
Q 54.203125 49.75 54.984375 44.1875 
Q 59.078125 49.953125 64.46875 52.96875 
Q 69.875 56 75.875 56 
Q 82.90625 56 86.734375 51.953125 
Q 90.578125 47.90625 90.578125 40.484375 
Q 90.578125 38.875 90.375 36.9375 
Q 90.1875 35.015625 89.796875 33.015625 
z
" id="DejaVuSans-Oblique-109"/>
       <path d="M 8.015625 75.875 
L 15.828125 75.875 
Q 23.140625 64.359375 26.78125 53.3125 
Q 30.421875 42.28125 30.421875 31.390625 
Q 30.421875 20.453125 26.78125 9.375 
Q 23.140625 -1.703125 15.828125 -13.1875 
L 8.015625 -13.1875 
Q 14.5 -2 17.703125 9.0625 
Q 20.90625 20.125 20.90625 31.390625 
Q 20.90625 42.671875 17.703125 53.65625 
Q 14.5 64.65625 8.015625 75.875 
z
" id="DejaVuSans-41"/>
      </defs>
      <use transform="translate(0 0.125)" xlink:href="#DejaVuSans-Oblique-120"/>
      <use transform="translate(59.179688 0.125)" xlink:href="#DejaVuSans-40"/>
      <use transform="translate(98.193359 0.125)" xlink:href="#DejaVuSans-Oblique-109"/>
      <use transform="translate(195.605469 0.125)" xlink:href="#DejaVuSans-41"/>
     </g>
    </g>
   </g>
   <g id="matplotlib.axis_2">
    <g id="ytick_1">
     <g id="line2d_7">
      <path clip-path="url(#pa72a7b712a)" d="M 62.015531 240.052767 
L 396.815531 240.052767 
" style="fill:none;stroke:#ffffff;stroke-linecap:round;"/>
     </g>
     <g id="text_8">
      <!-- 200 -->
      <g style="fill:#262626;" transform="translate(26.824 245.564282)scale(0.154 -0.154)">
       <use xlink:href="#ArialMT-50"/>
       <use x="55.615234" xlink:href="#ArialMT-48"/>
       <use x="111.230469" xlink:href="#ArialMT-48"/>
      </g>
     </g>
    </g>
    <g id="ytick_2">
     <g id="line2d_8">
      <path clip-path="url(#pa72a7b712a)" d="M 62.015531 178.395646 
L 396.815531 178.395646 
" style="fill:none;stroke:#ffffff;stroke-linecap:round;"/>
     </g>
     <g id="text_9">
      <!-- 250 -->
      <g style="fill:#262626;" transform="translate(26.824 183.907162)scale(0.154 -0.154)">
       <defs>
        <path d="M 4.15625 18.75 
L 13.375 19.53125 
Q 14.40625 12.796875 18.140625 9.390625 
Q 21.875 6 27.15625 6 
Q 33.5 6 37.890625 10.78125 
Q 42.28125 15.578125 42.28125 23.484375 
Q 42.28125 31 38.0625 35.34375 
Q 33.84375 39.703125 27 39.703125 
Q 22.75 39.703125 19.328125 37.765625 
Q 15.921875 35.84375 13.96875 32.765625 
L 5.71875 33.84375 
L 12.640625 70.609375 
L 48.25 70.609375 
L 48.25 62.203125 
L 19.671875 62.203125 
L 15.828125 42.96875 
Q 22.265625 47.46875 29.34375 47.46875 
Q 38.71875 47.46875 45.15625 40.96875 
Q 51.609375 34.46875 51.609375 24.265625 
Q 51.609375 14.546875 45.953125 7.46875 
Q 39.0625 -1.21875 27.15625 -1.21875 
Q 17.390625 -1.21875 11.203125 4.25 
Q 5.03125 9.71875 4.15625 18.75 
z
" id="ArialMT-53"/>
       </defs>
       <use xlink:href="#ArialMT-50"/>
       <use x="55.615234" xlink:href="#ArialMT-53"/>
       <use x="111.230469" xlink:href="#ArialMT-48"/>
      </g>
     </g>
    </g>
    <g id="ytick_3">
     <g id="line2d_9">
      <path clip-path="url(#pa72a7b712a)" d="M 62.015531 116.738526 
L 396.815531 116.738526 
" style="fill:none;stroke:#ffffff;stroke-linecap:round;"/>
     </g>
     <g id="text_10">
      <!-- 300 -->
      <g style="fill:#262626;" transform="translate(26.824 122.250042)scale(0.154 -0.154)">
       <defs>
        <path d="M 4.203125 18.890625 
L 12.984375 20.0625 
Q 14.5 12.59375 18.140625 9.296875 
Q 21.78125 6 27 6 
Q 33.203125 6 37.46875 10.296875 
Q 41.75 14.59375 41.75 20.953125 
Q 41.75 27 37.796875 30.921875 
Q 33.84375 34.859375 27.734375 34.859375 
Q 25.25 34.859375 21.53125 33.890625 
L 22.515625 41.609375 
Q 23.390625 41.5 23.921875 41.5 
Q 29.546875 41.5 34.03125 44.421875 
Q 38.53125 47.359375 38.53125 53.46875 
Q 38.53125 58.296875 35.25 61.46875 
Q 31.984375 64.65625 26.8125 64.65625 
Q 21.6875 64.65625 18.265625 61.421875 
Q 14.84375 58.203125 13.875 51.765625 
L 5.078125 53.328125 
Q 6.6875 62.15625 12.390625 67.015625 
Q 18.109375 71.875 26.609375 71.875 
Q 32.46875 71.875 37.390625 69.359375 
Q 42.328125 66.84375 44.9375 62.5 
Q 47.5625 58.15625 47.5625 53.265625 
Q 47.5625 48.640625 45.0625 44.828125 
Q 42.578125 41.015625 37.703125 38.765625 
Q 44.046875 37.3125 47.5625 32.6875 
Q 51.078125 28.078125 51.078125 21.140625 
Q 51.078125 11.765625 44.234375 5.25 
Q 37.40625 -1.265625 26.953125 -1.265625 
Q 17.53125 -1.265625 11.296875 4.34375 
Q 5.078125 9.96875 4.203125 18.890625 
z
" id="ArialMT-51"/>
       </defs>
       <use xlink:href="#ArialMT-51"/>
       <use x="55.615234" xlink:href="#ArialMT-48"/>
       <use x="111.230469" xlink:href="#ArialMT-48"/>
      </g>
     </g>
    </g>
    <g id="ytick_4">
     <g id="line2d_10">
      <path clip-path="url(#pa72a7b712a)" d="M 62.015531 55.081406 
L 396.815531 55.081406 
" style="fill:none;stroke:#ffffff;stroke-linecap:round;"/>
     </g>
     <g id="text_11">
      <!-- 350 -->
      <g style="fill:#262626;" transform="translate(26.824 60.592922)scale(0.154 -0.154)">
       <use xlink:href="#ArialMT-51"/>
       <use x="55.615234" xlink:href="#ArialMT-53"/>
       <use x="111.230469" xlink:href="#ArialMT-48"/>
      </g>
     </g>
    </g>
    <g id="text_12">
     <!-- $V_x (V)$ -->
     <g style="fill:#262626;" transform="translate(19.485 156.644062)rotate(-90)scale(0.168 -0.168)">
      <defs>
       <path d="M 20.609375 0 
L 7.8125 72.90625 
L 17.484375 72.90625 
L 28.078125 10.203125 
L 63.484375 72.90625 
L 74.21875 72.90625 
L 32.078125 0 
z
" id="DejaVuSans-Oblique-86"/>
      </defs>
      <use transform="translate(0 0.125)" xlink:href="#DejaVuSans-Oblique-86"/>
      <use transform="translate(68.408203 -16.28125)scale(0.7)" xlink:href="#DejaVuSans-Oblique-120"/>
      <use transform="translate(112.568359 0.125)" xlink:href="#DejaVuSans-40"/>
      <use transform="translate(151.582031 0.125)" xlink:href="#DejaVuSans-Oblique-86"/>
      <use transform="translate(219.990234 0.125)" xlink:href="#DejaVuSans-41"/>
     </g>
    </g>
   </g>
   <g id="PathCollection_1">
    <path clip-path="url(#pa72a7b712a)" d="M 77.233713 38.089019 
C 77.796294 38.089019 78.335908 37.865504 78.733713 37.467699 
C 79.131518 37.069894 79.355033 36.53028 79.355033 35.967699 
C 79.355033 35.405118 79.131518 34.865504 78.733713 34.467699 
C 78.335908 34.069894 77.796294 33.846379 77.233713 33.846379 
C 76.671132 33.846379 76.131518 34.069894 75.733713 34.467699 
C 75.335908 34.865504 75.112393 35.405118 75.112393 35.967699 
C 75.112393 36.53028 75.335908 37.069894 75.733713 37.467699 
C 76.131518 37.865504 76.671132 38.089019 77.233713 38.089019 
z
" style="fill:#f77189;stroke:#ffffff;stroke-width:0.339411;"/>
    <path clip-path="url(#pa72a7b712a)" d="M 104.325118 73.110263 
C 104.887698 73.110263 105.427313 72.886748 105.825118 72.488943 
C 106.222922 72.091138 106.446438 71.551524 106.446438 70.988943 
C 106.446438 70.426362 106.222922 69.886748 105.825118 69.488943 
C 105.427313 69.091138 104.887698 68.867623 104.325118 68.867623 
C 103.762537 68.867623 103.222922 69.091138 102.825118 69.488943 
C 102.427313 69.886748 102.203797 70.426362 102.203797 70.988943 
C 102.203797 71.551524 102.427313 72.091138 102.825118 72.488943 
C 103.222922 72.886748 103.762537 73.110263 104.325118 73.110263 
z
" style="fill:#f77189;stroke:#ffffff;stroke-width:0.339411;"/>
    <path clip-path="url(#pa72a7b712a)" d="M 133.07518 105.29528 
C 133.63776 105.29528 134.177375 105.071765 134.57518 104.67396 
C 134.972984 104.276155 135.1965 103.736541 135.1965 103.17396 
C 135.1965 102.611379 134.972984 102.071765 134.57518 101.67396 
C 134.177375 101.276155 133.63776 101.05264 133.07518 101.05264 
C 132.512599 101.05264 131.972984 101.276155 131.57518 101.67396 
C 131.177375 102.071765 130.953859 102.611379 130.953859 103.17396 
C 130.953859 103.736541 131.177375 104.276155 131.57518 104.67396 
C 131.972984 105.071765 132.512599 105.29528 133.07518 105.29528 
z
" style="fill:#f77189;stroke:#ffffff;stroke-width:0.339411;"/>
    <path clip-path="url(#pa72a7b712a)" d="M 161.548799 128.355043 
C 162.111379 128.355043 162.650994 128.131527 163.048799 127.733723 
C 163.446603 127.335918 163.670119 126.796304 163.670119 126.233723 
C 163.670119 125.671142 163.446603 125.131527 163.048799 124.733723 
C 162.650994 124.335918 162.111379 124.112402 161.548799 124.112402 
C 160.986218 124.112402 160.446603 124.335918 160.048799 124.733723 
C 159.650994 125.131527 159.427478 125.671142 159.427478 126.233723 
C 159.427478 126.796304 159.650994 127.335918 160.048799 127.733723 
C 160.446603 128.131527 160.986218 128.355043 161.548799 128.355043 
z
" style="fill:#f77189;stroke:#ffffff;stroke-width:0.339411;"/>
    <path clip-path="url(#pa72a7b712a)" d="M 186.981546 146.852179 
C 187.544126 146.852179 188.083741 146.628663 188.481546 146.230859 
C 188.87935 145.833054 189.102866 145.29344 189.102866 144.730859 
C 189.102866 144.168278 188.87935 143.628663 188.481546 143.230859 
C 188.083741 142.833054 187.544126 142.609539 186.981546 142.609539 
C 186.418965 142.609539 185.87935 142.833054 185.481546 143.230859 
C 185.083741 143.628663 184.860225 144.168278 184.860225 144.730859 
C 184.860225 145.29344 185.083741 145.833054 185.481546 146.230859 
C 185.87935 146.628663 186.418965 146.852179 186.981546 146.852179 
z
" style="fill:#f77189;stroke:#ffffff;stroke-width:0.339411;"/>
    <path clip-path="url(#pa72a7b712a)" d="M 215.731608 164.856058 
C 216.294188 164.856058 216.833803 164.632543 217.231608 164.234738 
C 217.629412 163.836933 217.852928 163.297319 217.852928 162.734738 
C 217.852928 162.172157 217.629412 161.632543 217.231608 161.234738 
C 216.833803 160.836933 216.294188 160.613418 215.731608 160.613418 
C 215.169027 160.613418 214.629412 160.836933 214.231608 161.234738 
C 213.833803 161.632543 213.610287 162.172157 213.610287 162.734738 
C 213.610287 163.297319 213.833803 163.836933 214.231608 164.234738 
C 214.629412 164.632543 215.169027 164.856058 215.731608 164.856058 
z
" style="fill:#f77189;stroke:#ffffff;stroke-width:0.339411;"/>
    <path clip-path="url(#pa72a7b712a)" d="M 242.823012 179.653767 
C 243.385593 179.653767 243.925207 179.430251 244.323012 179.032447 
C 244.720817 178.634642 244.944332 178.095028 244.944332 177.532447 
C 244.944332 176.969866 244.720817 176.430251 244.323012 176.032447 
C 243.925207 175.634642 243.385593 175.411126 242.823012 175.411126 
C 242.260431 175.411126 241.720817 175.634642 241.323012 176.032447 
C 240.925207 176.430251 240.701692 176.969866 240.701692 177.532447 
C 240.701692 178.095028 240.925207 178.634642 241.323012 179.032447 
C 241.720817 179.430251 242.260431 179.653767 242.823012 179.653767 
z
" style="fill:#f77189;stroke:#ffffff;stroke-width:0.339411;"/>
    <path clip-path="url(#pa72a7b712a)" d="M 269.914417 192.848391 
C 270.476997 192.848391 271.016612 192.624875 271.414417 192.22707 
C 271.812221 191.829266 272.035737 191.289651 272.035737 190.72707 
C 272.035737 190.16449 271.812221 189.624875 271.414417 189.22707 
C 271.016612 188.829266 270.476997 188.60575 269.914417 188.60575 
C 269.351836 188.60575 268.812221 188.829266 268.414417 189.22707 
C 268.016612 189.624875 267.793096 190.16449 267.793096 190.72707 
C 267.793096 191.289651 268.016612 191.829266 268.414417 192.22707 
C 268.812221 192.624875 269.351836 192.848391 269.914417 192.848391 
z
" style="fill:#f77189;stroke:#ffffff;stroke-width:0.339411;"/>
    <path clip-path="url(#pa72a7b712a)" d="M 298.664478 205.426443 
C 299.227059 205.426443 299.766674 205.202928 300.164478 204.805123 
C 300.562283 204.407318 300.785799 203.867704 300.785799 203.305123 
C 300.785799 202.742542 300.562283 202.202928 300.164478 201.805123 
C 299.766674 201.407318 299.227059 201.183803 298.664478 201.183803 
C 298.101898 201.183803 297.562283 201.407318 297.164478 201.805123 
C 296.766674 202.202928 296.543158 202.742542 296.543158 203.305123 
C 296.543158 203.867704 296.766674 204.407318 297.164478 204.805123 
C 297.562283 205.202928 298.101898 205.426443 298.664478 205.426443 
z
" style="fill:#f77189;stroke:#ffffff;stroke-width:0.339411;"/>
    <path clip-path="url(#pa72a7b712a)" d="M 327.41454 216.771353 
C 327.977121 216.771353 328.516736 216.547838 328.91454 216.150033 
C 329.312345 215.752228 329.535861 215.212614 329.535861 214.650033 
C 329.535861 214.087452 329.312345 213.547838 328.91454 213.150033 
C 328.516736 212.752228 327.977121 212.528713 327.41454 212.528713 
C 326.85196 212.528713 326.312345 212.752228 325.91454 213.150033 
C 325.516736 213.547838 325.29322 214.087452 325.29322 214.650033 
C 325.29322 215.212614 325.516736 215.752228 325.91454 216.150033 
C 326.312345 216.547838 326.85196 216.771353 327.41454 216.771353 
z
" style="fill:#f77189;stroke:#ffffff;stroke-width:0.339411;"/>
    <path clip-path="url(#pa72a7b712a)" d="M 354.505945 226.636493 
C 355.068526 226.636493 355.60814 226.412977 356.005945 226.015172 
C 356.40375 225.617368 356.627265 225.077753 356.627265 224.515172 
C 356.627265 223.952592 356.40375 223.412977 356.005945 223.015172 
C 355.60814 222.617368 355.068526 222.393852 354.505945 222.393852 
C 353.943364 222.393852 353.40375 222.617368 353.005945 223.015172 
C 352.60814 223.412977 352.384625 223.952592 352.384625 224.515172 
C 352.384625 225.077753 352.60814 225.617368 353.005945 226.015172 
C 353.40375 226.412977 353.943364 226.636493 354.505945 226.636493 
z
" style="fill:#f77189;stroke:#ffffff;stroke-width:0.339411;"/>
    <path clip-path="url(#pa72a7b712a)" d="M 381.597349 235.761746 
C 382.15993 235.761746 382.699545 235.538231 383.097349 235.140426 
C 383.495154 234.742621 383.71867 234.203007 383.71867 233.640426 
C 383.71867 233.077845 383.495154 232.538231 383.097349 232.140426 
C 382.699545 231.742621 382.15993 231.519106 381.597349 231.519106 
C 381.034769 231.519106 380.495154 231.742621 380.097349 232.140426 
C 379.699545 232.538231 379.476029 233.077845 379.476029 233.640426 
C 379.476029 234.203007 379.699545 234.742621 380.097349 235.140426 
C 380.495154 235.538231 381.034769 235.761746 381.597349 235.761746 
z
" style="fill:#f77189;stroke:#ffffff;stroke-width:0.339411;"/>
   </g>
   <g id="line2d_11">
    <path clip-path="url(#pa72a7b712a)" d="M 139.433366 109.184739 
L 144.347907 112.973402 
L 149.262447 116.762065 
L 154.176988 120.550728 
L 159.091528 124.339391 
L 164.006069 128.128054 
L 168.920609 131.916718 
L 173.83515 135.705381 
L 178.74969 139.494044 
L 183.664231 143.282707 
" style="fill:none;stroke:#64b5cd;stroke-dasharray:7.4,3.2;stroke-dashoffset:0;stroke-width:2;"/>
   </g>
   <g id="patch_3">
    <path d="M 62.015531 243.524062 
L 62.015531 26.084062 
" style="fill:none;stroke:#ffffff;stroke-linecap:square;stroke-linejoin:miter;stroke-width:1.25;"/>
   </g>
   <g id="patch_4">
    <path d="M 396.815531 243.524062 
L 396.815531 26.084062 
" style="fill:none;stroke:#ffffff;stroke-linecap:square;stroke-linejoin:miter;stroke-width:1.25;"/>
   </g>
   <g id="patch_5">
    <path d="M 62.015531 243.524062 
L 396.815531 243.524062 
" style="fill:none;stroke:#ffffff;stroke-linecap:square;stroke-linejoin:miter;stroke-width:1.25;"/>
   </g>
   <g id="patch_6">
    <path d="M 62.015531 26.084062 
L 396.815531 26.084062 
" style="fill:none;stroke:#ffffff;stroke-linecap:square;stroke-linejoin:miter;stroke-width:1.25;"/>
   </g>
   <g id="text_13">
    <!-- $V_x\ vs\ x$ -->
    <g style="fill:#262626;" transform="translate(198.095531 20.084062)scale(0.18 -0.18)">
     <defs>
      <path d="M 7.171875 54.6875 
L 16.703125 54.6875 
L 24.703125 8.203125 
L 50.875 54.6875 
L 60.40625 54.6875 
L 29.296875 0 
L 17.1875 0 
z
" id="DejaVuSans-Oblique-118"/>
      <path d="M 50 53.078125 
L 48.296875 44.578125 
Q 44.734375 46.53125 40.765625 47.5 
Q 36.8125 48.484375 32.625 48.484375 
Q 25.53125 48.484375 21.453125 46.0625 
Q 17.390625 43.65625 17.390625 39.5 
Q 17.390625 34.671875 26.859375 32.078125 
Q 27.59375 31.890625 27.9375 31.78125 
L 30.8125 30.90625 
Q 39.796875 28.421875 42.796875 25.6875 
Q 45.796875 22.953125 45.796875 18.21875 
Q 45.796875 9.515625 38.890625 4.046875 
Q 31.984375 -1.421875 20.796875 -1.421875 
Q 16.453125 -1.421875 11.671875 -0.578125 
Q 6.890625 0.25 1.125 2 
L 2.875 11.28125 
Q 7.8125 8.734375 12.59375 7.421875 
Q 17.390625 6.109375 21.78125 6.109375 
Q 28.375 6.109375 32.5 8.9375 
Q 36.625 11.765625 36.625 16.109375 
Q 36.625 20.796875 25.78125 23.6875 
L 24.859375 23.921875 
L 21.78125 24.703125 
Q 14.9375 26.515625 11.765625 29.46875 
Q 8.59375 32.421875 8.59375 37.015625 
Q 8.59375 45.75 15.15625 50.875 
Q 21.734375 56 33.015625 56 
Q 37.453125 56 41.671875 55.265625 
Q 45.90625 54.546875 50 53.078125 
z
" id="DejaVuSans-Oblique-115"/>
     </defs>
     <use transform="translate(0 0.09375)" xlink:href="#DejaVuSans-Oblique-86"/>
     <use transform="translate(68.408203 -16.3125)scale(0.7)" xlink:href="#DejaVuSans-Oblique-120"/>
     <use transform="translate(145.038738 0.09375)" xlink:href="#DejaVuSans-Oblique-118"/>
     <use transform="translate(204.218425 0.09375)" xlink:href="#DejaVuSans-Oblique-115"/>
     <use transform="translate(288.788413 0.09375)" xlink:href="#DejaVuSans-Oblique-120"/>
    </g>
   </g>
  </g>
 </g>
 <defs>
  <clipPath id="pa72a7b712a">
   <rect height="217.44" width="334.8" x="62.015531" y="26.084062"/>
  </clipPath>
 </defs>
</svg>
