<?xml version="1.0" encoding="utf-8" standalone="no"?>
<!DOCTYPE svg PUBLIC "-//W3C//DTD SVG 1.1//EN"
  "http://www.w3.org/Graphics/SVG/1.1/DTD/svg11.dtd">
<!-- Created with matplotlib (https://matplotlib.org/) -->
<svg height="377.413297pt" version="1.1" viewBox="0 0 358.874969 377.413297" width="358.874969pt" xmlns="http://www.w3.org/2000/svg" xmlns:xlink="http://www.w3.org/1999/xlink">
 <metadata>
  <rdf:RDF xmlns:cc="http://creativecommons.org/ns#" xmlns:dc="http://purl.org/dc/elements/1.1/" xmlns:rdf="http://www.w3.org/1999/02/22-rdf-syntax-ns#">
   <cc:Work>
    <dc:type rdf:resource="http://purl.org/dc/dcmitype/StillImage"/>
    <dc:date>2021-03-08T21:08:51.836764</dc:date>
    <dc:format>image/svg+xml</dc:format>
    <dc:creator>
     <cc:Agent>
      <dc:title>Matplotlib v3.3.4, https://matplotlib.org/</dc:title>
     </cc:Agent>
    </dc:creator>
   </cc:Work>
  </rdf:RDF>
 </metadata>
 <defs>
  <style type="text/css">*{stroke-linecap:butt;stroke-linejoin:round;}</style>
 </defs>
 <g id="figure_1">
  <g id="patch_1">
   <path d="M 0 377.413297 
L 358.874969 377.413297 
L 358.874969 0 
L 0 0 
z
" style="fill:#ffffff;"/>
  </g>
  <g id="axes_1">
   <g id="patch_2">
    <path d="M 50.870969 327.2555 
L 351.674969 327.2555 
L 351.674969 24.4515 
L 50.870969 24.4515 
z
" style="fill:#eaeaf2;"/>
   </g>
   <g id="matplotlib.axis_1">
    <g id="xtick_1">
     <g id="line2d_1">
      <path clip-path="url(#pc4936b2e8d)" d="M 86.132682 327.2555 
L 86.132682 24.4515 
" style="fill:none;stroke:#ffffff;stroke-linecap:round;"/>
     </g>
     <g id="text_1">
      <!-- 5 -->
      <g style="fill:#262626;" transform="translate(82.156611 346.991172)scale(0.143 -0.143)">
       <defs>
        <path d="M 4.15625 18.75 
L 13.375 19.53125 
Q 14.40625 12.796875 18.140625 9.390625 
Q 21.875 6 27.15625 6 
Q 33.5 6 37.890625 10.78125 
Q 42.28125 15.578125 42.28125 23.484375 
Q 42.28125 31 38.0625 35.34375 
Q 33.84375 39.703125 27 39.703125 
Q 22.75 39.703125 19.328125 37.765625 
Q 15.921875 35.84375 13.96875 32.765625 
L 5.71875 33.84375 
L 12.640625 70.609375 
L 48.25 70.609375 
L 48.25 62.203125 
L 19.671875 62.203125 
L 15.828125 42.96875 
Q 22.265625 47.46875 29.34375 47.46875 
Q 38.71875 47.46875 45.15625 40.96875 
Q 51.609375 34.46875 51.609375 24.265625 
Q 51.609375 14.546875 45.953125 7.46875 
Q 39.0625 -1.21875 27.15625 -1.21875 
Q 17.390625 -1.21875 11.203125 4.25 
Q 5.03125 9.71875 4.15625 18.75 
z
" id="ArialMT-53"/>
       </defs>
       <use xlink:href="#ArialMT-53"/>
      </g>
     </g>
    </g>
    <g id="xtick_2">
     <g id="line2d_2">
      <path clip-path="url(#pc4936b2e8d)" d="M 146.101581 327.2555 
L 146.101581 24.4515 
" style="fill:none;stroke:#ffffff;stroke-linecap:round;"/>
     </g>
     <g id="text_2">
      <!-- 10 -->
      <g style="fill:#262626;" transform="translate(138.149441 346.991172)scale(0.143 -0.143)">
       <defs>
        <path d="M 37.25 0 
L 28.46875 0 
L 28.46875 56 
Q 25.296875 52.984375 20.140625 49.953125 
Q 14.984375 46.921875 10.890625 45.40625 
L 10.890625 53.90625 
Q 18.265625 57.375 23.78125 62.296875 
Q 29.296875 67.234375 31.59375 71.875 
L 37.25 71.875 
z
" id="ArialMT-49"/>
        <path d="M 4.15625 35.296875 
Q 4.15625 48 6.765625 55.734375 
Q 9.375 63.484375 14.515625 67.671875 
Q 19.671875 71.875 27.484375 71.875 
Q 33.25 71.875 37.59375 69.546875 
Q 41.9375 67.234375 44.765625 62.859375 
Q 47.609375 58.5 49.21875 52.21875 
Q 50.828125 45.953125 50.828125 35.296875 
Q 50.828125 22.703125 48.234375 14.96875 
Q 45.65625 7.234375 40.5 3 
Q 35.359375 -1.21875 27.484375 -1.21875 
Q 17.140625 -1.21875 11.234375 6.203125 
Q 4.15625 15.140625 4.15625 35.296875 
z
M 13.1875 35.296875 
Q 13.1875 17.671875 17.3125 11.828125 
Q 21.4375 6 27.484375 6 
Q 33.546875 6 37.671875 11.859375 
Q 41.796875 17.71875 41.796875 35.296875 
Q 41.796875 52.984375 37.671875 58.78125 
Q 33.546875 64.59375 27.390625 64.59375 
Q 21.34375 64.59375 17.71875 59.46875 
Q 13.1875 52.9375 13.1875 35.296875 
z
" id="ArialMT-48"/>
       </defs>
       <use xlink:href="#ArialMT-49"/>
       <use x="55.615234" xlink:href="#ArialMT-48"/>
      </g>
     </g>
    </g>
    <g id="xtick_3">
     <g id="line2d_3">
      <path clip-path="url(#pc4936b2e8d)" d="M 206.070481 327.2555 
L 206.070481 24.4515 
" style="fill:none;stroke:#ffffff;stroke-linecap:round;"/>
     </g>
     <g id="text_3">
      <!-- 15 -->
      <g style="fill:#262626;" transform="translate(198.11834 346.991172)scale(0.143 -0.143)">
       <use xlink:href="#ArialMT-49"/>
       <use x="55.615234" xlink:href="#ArialMT-53"/>
      </g>
     </g>
    </g>
    <g id="xtick_4">
     <g id="line2d_4">
      <path clip-path="url(#pc4936b2e8d)" d="M 266.03938 327.2555 
L 266.03938 24.4515 
" style="fill:none;stroke:#ffffff;stroke-linecap:round;"/>
     </g>
     <g id="text_4">
      <!-- 20 -->
      <g style="fill:#262626;" transform="translate(258.08724 346.991172)scale(0.143 -0.143)">
       <defs>
        <path d="M 50.34375 8.453125 
L 50.34375 0 
L 3.03125 0 
Q 2.9375 3.171875 4.046875 6.109375 
Q 5.859375 10.9375 9.828125 15.625 
Q 13.8125 20.3125 21.34375 26.46875 
Q 33.015625 36.03125 37.109375 41.625 
Q 41.21875 47.21875 41.21875 52.203125 
Q 41.21875 57.421875 37.46875 61 
Q 33.734375 64.59375 27.734375 64.59375 
Q 21.390625 64.59375 17.578125 60.78125 
Q 13.765625 56.984375 13.71875 50.25 
L 4.6875 51.171875 
Q 5.609375 61.28125 11.65625 66.578125 
Q 17.71875 71.875 27.9375 71.875 
Q 38.234375 71.875 44.234375 66.15625 
Q 50.25 60.453125 50.25 52 
Q 50.25 47.703125 48.484375 43.546875 
Q 46.734375 39.40625 42.65625 34.8125 
Q 38.578125 30.21875 29.109375 22.21875 
Q 21.1875 15.578125 18.9375 13.203125 
Q 16.703125 10.84375 15.234375 8.453125 
z
" id="ArialMT-50"/>
       </defs>
       <use xlink:href="#ArialMT-50"/>
       <use x="55.615234" xlink:href="#ArialMT-48"/>
      </g>
     </g>
    </g>
    <g id="xtick_5">
     <g id="line2d_5">
      <path clip-path="url(#pc4936b2e8d)" d="M 326.00828 327.2555 
L 326.00828 24.4515 
" style="fill:none;stroke:#ffffff;stroke-linecap:round;"/>
     </g>
     <g id="text_5">
      <!-- 25 -->
      <g style="fill:#262626;" transform="translate(318.056139 346.991172)scale(0.143 -0.143)">
       <use xlink:href="#ArialMT-50"/>
       <use x="55.615234" xlink:href="#ArialMT-53"/>
      </g>
     </g>
    </g>
    <g id="text_6">
     <!-- $A^{-1} (mm^{-2})$ -->
     <g style="fill:#262626;" transform="translate(157.202969 367.112797)scale(0.156 -0.156)">
      <defs>
       <path d="M 36.8125 72.90625 
L 48 72.90625 
L 61.53125 0 
L 51.21875 0 
L 48.1875 18.703125 
L 15.375 18.703125 
L 5.078125 0 
L -5.328125 0 
z
M 40.375 63.1875 
L 19.921875 26.90625 
L 46.6875 26.90625 
z
" id="DejaVuSans-Oblique-65"/>
       <path d="M 10.59375 35.5 
L 73.1875 35.5 
L 73.1875 27.203125 
L 10.59375 27.203125 
z
" id="DejaVuSans-8722"/>
       <path d="M 12.40625 8.296875 
L 28.515625 8.296875 
L 28.515625 63.921875 
L 10.984375 60.40625 
L 10.984375 69.390625 
L 28.421875 72.90625 
L 38.28125 72.90625 
L 38.28125 8.296875 
L 54.390625 8.296875 
L 54.390625 0 
L 12.40625 0 
z
" id="DejaVuSans-49"/>
       <path d="M 31 75.875 
Q 24.46875 64.65625 21.28125 53.65625 
Q 18.109375 42.671875 18.109375 31.390625 
Q 18.109375 20.125 21.3125 9.0625 
Q 24.515625 -2 31 -13.1875 
L 23.1875 -13.1875 
Q 15.875 -1.703125 12.234375 9.375 
Q 8.59375 20.453125 8.59375 31.390625 
Q 8.59375 42.28125 12.203125 53.3125 
Q 15.828125 64.359375 23.1875 75.875 
z
" id="DejaVuSans-40"/>
       <path d="M 89.796875 33.015625 
L 83.40625 0 
L 74.421875 0 
L 80.71875 32.71875 
Q 81.109375 34.8125 81.296875 36.328125 
Q 81.5 37.84375 81.5 38.921875 
Q 81.5 43.3125 79.046875 45.75 
Q 76.609375 48.1875 72.21875 48.1875 
Q 65.671875 48.1875 60.546875 43.28125 
Q 55.421875 38.375 53.90625 30.515625 
L 47.90625 0 
L 38.921875 0 
L 45.3125 32.71875 
Q 45.703125 34.515625 45.890625 36.046875 
Q 46.09375 37.59375 46.09375 38.8125 
Q 46.09375 43.265625 43.65625 45.71875 
Q 41.21875 48.1875 36.921875 48.1875 
Q 30.28125 48.1875 25.140625 43.28125 
Q 20.015625 38.375 18.5 30.515625 
L 12.5 0 
L 3.515625 0 
L 14.203125 54.6875 
L 23.1875 54.6875 
L 21.484375 46.1875 
Q 25.140625 50.984375 30.046875 53.484375 
Q 34.96875 56 40.578125 56 
Q 46.53125 56 50.359375 52.875 
Q 54.203125 49.75 54.984375 44.1875 
Q 59.078125 49.953125 64.46875 52.96875 
Q 69.875 56 75.875 56 
Q 82.90625 56 86.734375 51.953125 
Q 90.578125 47.90625 90.578125 40.484375 
Q 90.578125 38.875 90.375 36.9375 
Q 90.1875 35.015625 89.796875 33.015625 
z
" id="DejaVuSans-Oblique-109"/>
       <path d="M 19.1875 8.296875 
L 53.609375 8.296875 
L 53.609375 0 
L 7.328125 0 
L 7.328125 8.296875 
Q 12.9375 14.109375 22.625 23.890625 
Q 32.328125 33.6875 34.8125 36.53125 
Q 39.546875 41.84375 41.421875 45.53125 
Q 43.3125 49.21875 43.3125 52.78125 
Q 43.3125 58.59375 39.234375 62.25 
Q 35.15625 65.921875 28.609375 65.921875 
Q 23.96875 65.921875 18.8125 64.3125 
Q 13.671875 62.703125 7.8125 59.421875 
L 7.8125 69.390625 
Q 13.765625 71.78125 18.9375 73 
Q 24.125 74.21875 28.421875 74.21875 
Q 39.75 74.21875 46.484375 68.546875 
Q 53.21875 62.890625 53.21875 53.421875 
Q 53.21875 48.921875 51.53125 44.890625 
Q 49.859375 40.875 45.40625 35.40625 
Q 44.1875 33.984375 37.640625 27.21875 
Q 31.109375 20.453125 19.1875 8.296875 
z
" id="DejaVuSans-50"/>
       <path d="M 8.015625 75.875 
L 15.828125 75.875 
Q 23.140625 64.359375 26.78125 53.3125 
Q 30.421875 42.28125 30.421875 31.390625 
Q 30.421875 20.453125 26.78125 9.375 
Q 23.140625 -1.703125 15.828125 -13.1875 
L 8.015625 -13.1875 
Q 14.5 -2 17.703125 9.0625 
Q 20.90625 20.125 20.90625 31.390625 
Q 20.90625 42.671875 17.703125 53.65625 
Q 14.5 64.65625 8.015625 75.875 
z
" id="DejaVuSans-41"/>
      </defs>
      <use transform="translate(0 0.765625)" xlink:href="#DejaVuSans-Oblique-65"/>
      <use transform="translate(75.424974 39.046875)scale(0.7)" xlink:href="#DejaVuSans-8722"/>
      <use transform="translate(134.077318 39.046875)scale(0.7)" xlink:href="#DejaVuSans-49"/>
      <use transform="translate(181.347826 0.765625)" xlink:href="#DejaVuSans-40"/>
      <use transform="translate(220.361497 0.765625)" xlink:href="#DejaVuSans-Oblique-109"/>
      <use transform="translate(317.773607 0.765625)" xlink:href="#DejaVuSans-Oblique-109"/>
      <use transform="translate(419.835612 39.046875)scale(0.7)" xlink:href="#DejaVuSans-8722"/>
      <use transform="translate(478.487956 39.046875)scale(0.7)" xlink:href="#DejaVuSans-50"/>
      <use transform="translate(525.758464 0.765625)" xlink:href="#DejaVuSans-41"/>
     </g>
    </g>
   </g>
   <g id="matplotlib.axis_2">
    <g id="ytick_1">
     <g id="line2d_6">
      <path clip-path="url(#pc4936b2e8d)" d="M 50.870969 292.09018 
L 351.674969 292.09018 
" style="fill:none;stroke:#ffffff;stroke-linecap:round;"/>
     </g>
     <g id="text_7">
      <!-- 5 -->
      <g style="fill:#262626;" transform="translate(33.418828 297.208016)scale(0.143 -0.143)">
       <use xlink:href="#ArialMT-53"/>
      </g>
     </g>
    </g>
    <g id="ytick_2">
     <g id="line2d_7">
      <path clip-path="url(#pc4936b2e8d)" d="M 50.870969 228.012839 
L 351.674969 228.012839 
" style="fill:none;stroke:#ffffff;stroke-linecap:round;"/>
     </g>
     <g id="text_8">
      <!-- 10 -->
      <g style="fill:#262626;" transform="translate(25.466688 233.130675)scale(0.143 -0.143)">
       <use xlink:href="#ArialMT-49"/>
       <use x="55.615234" xlink:href="#ArialMT-48"/>
      </g>
     </g>
    </g>
    <g id="ytick_3">
     <g id="line2d_8">
      <path clip-path="url(#pc4936b2e8d)" d="M 50.870969 163.935499 
L 351.674969 163.935499 
" style="fill:none;stroke:#ffffff;stroke-linecap:round;"/>
     </g>
     <g id="text_9">
      <!-- 15 -->
      <g style="fill:#262626;" transform="translate(25.466688 169.053335)scale(0.143 -0.143)">
       <use xlink:href="#ArialMT-49"/>
       <use x="55.615234" xlink:href="#ArialMT-53"/>
      </g>
     </g>
    </g>
    <g id="ytick_4">
     <g id="line2d_9">
      <path clip-path="url(#pc4936b2e8d)" d="M 50.870969 99.858158 
L 351.674969 99.858158 
" style="fill:none;stroke:#ffffff;stroke-linecap:round;"/>
     </g>
     <g id="text_10">
      <!-- 20 -->
      <g style="fill:#262626;" transform="translate(25.466688 104.975994)scale(0.143 -0.143)">
       <use xlink:href="#ArialMT-50"/>
       <use x="55.615234" xlink:href="#ArialMT-48"/>
      </g>
     </g>
    </g>
    <g id="ytick_5">
     <g id="line2d_10">
      <path clip-path="url(#pc4936b2e8d)" d="M 50.870969 35.780817 
L 351.674969 35.780817 
" style="fill:none;stroke:#ffffff;stroke-linecap:round;"/>
     </g>
     <g id="text_11">
      <!-- 25 -->
      <g style="fill:#262626;" transform="translate(25.466688 40.898653)scale(0.143 -0.143)">
       <use xlink:href="#ArialMT-50"/>
       <use x="55.615234" xlink:href="#ArialMT-53"/>
      </g>
     </g>
    </g>
    <g id="text_12">
     <!-- $R (\Omega)$ -->
     <g style="fill:#262626;" transform="translate(18.366188 193.3255)rotate(-90)scale(0.156 -0.156)">
      <defs>
       <path d="M 25.203125 64.796875 
L 20.21875 38.921875 
L 32.90625 38.921875 
Q 40.375 38.921875 44.984375 43.046875 
Q 49.609375 47.171875 49.609375 53.8125 
Q 49.609375 59.125 46.5 61.953125 
Q 43.40625 64.796875 37.59375 64.796875 
z
M 43.3125 35.015625 
Q 46.4375 34.28125 48.515625 31.390625 
Q 50.59375 28.515625 53.328125 19.921875 
L 59.515625 0 
L 49.125 0 
L 43.40625 18.703125 
Q 41.21875 25.921875 38.328125 28.359375 
Q 35.453125 30.8125 29.5 30.8125 
L 18.609375 30.8125 
L 12.59375 0 
L 2.6875 0 
L 16.890625 72.90625 
L 39.109375 72.90625 
Q 49.21875 72.90625 54.609375 68.328125 
Q 60.015625 63.765625 60.015625 55.171875 
Q 60.015625 47.5625 55.421875 41.984375 
Q 50.828125 36.421875 43.3125 35.015625 
z
" id="DejaVuSans-Oblique-82"/>
       <path d="M 72.609375 8.6875 
L 72.609375 0 
L 43.3125 0 
L 43.3125 8.6875 
Q 51.953125 13.421875 56.78125 21.53125 
Q 61.625 29.640625 61.625 39.5 
Q 61.625 51.21875 55.171875 58.296875 
Q 48.734375 65.375 38.1875 65.375 
Q 27.640625 65.375 21.171875 58.265625 
Q 14.703125 51.171875 14.703125 39.5 
Q 14.703125 29.640625 19.53125 21.53125 
Q 24.421875 13.421875 33.109375 8.6875 
L 33.109375 0 
L 3.8125 0 
L 3.8125 8.6875 
L 19.390625 8.6875 
Q 11.671875 15.484375 8.109375 22.75 
Q 4.59375 30.03125 4.59375 39.015625 
Q 4.59375 54.546875 13.96875 64.15625 
Q 23.296875 73.78125 38.1875 73.78125 
Q 52.984375 73.78125 62.40625 64.15625 
Q 71.78125 54.59375 71.78125 39.5 
Q 71.78125 30.03125 68.3125 22.796875 
Q 64.84375 15.578125 56.984375 8.6875 
z
" id="DejaVuSans-937"/>
      </defs>
      <use transform="translate(0 0.125)" xlink:href="#DejaVuSans-Oblique-82"/>
      <use transform="translate(69.482422 0.125)" xlink:href="#DejaVuSans-40"/>
      <use transform="translate(108.496094 0.125)" xlink:href="#DejaVuSans-937"/>
      <use transform="translate(184.912109 0.125)" xlink:href="#DejaVuSans-41"/>
     </g>
    </g>
   </g>
   <g id="PathCollection_1">
    <defs>
     <path d="M 0 4.1833 
C 1.109424 4.1833 2.173559 3.742521 2.95804 2.95804 
C 3.742521 2.173559 4.1833 1.109424 4.1833 0 
C 4.1833 -1.109424 3.742521 -2.173559 2.95804 -2.95804 
C 2.173559 -3.742521 1.109424 -4.1833 0 -4.1833 
C -1.109424 -4.1833 -2.173559 -3.742521 -2.95804 -2.95804 
C -3.742521 -2.173559 -4.1833 -1.109424 -4.1833 0 
C -4.1833 1.109424 -3.742521 2.173559 -2.95804 2.95804 
C -2.173559 3.742521 -1.109424 4.1833 0 4.1833 
z
" id="m65c3271cff" style="stroke:#ffffff;stroke-opacity:0.8;"/>
    </defs>
    <g clip-path="url(#pc4936b2e8d)">
     <use style="fill:#f77189;fill-opacity:0.8;stroke:#ffffff;stroke-opacity:0.8;" x="314.0145" xlink:href="#m65c3271cff" y="70.767045"/>
     <use style="fill:#f77189;fill-opacity:0.8;stroke:#ffffff;stroke-opacity:0.8;" x="195.276079" xlink:href="#m65c3271cff" y="170.599542"/>
     <use style="fill:#f77189;fill-opacity:0.8;stroke:#ffffff;stroke-opacity:0.8;" x="131.709045" xlink:href="#m65c3271cff" y="240.828307"/>
     <use style="fill:#f77189;fill-opacity:0.8;stroke:#ffffff;stroke-opacity:0.8;" x="95.727706" xlink:href="#m65c3271cff" y="281.581496"/>
     <use style="fill:#f77189;fill-opacity:0.8;stroke:#ffffff;stroke-opacity:0.8;" x="66.942634" xlink:href="#m65c3271cff" y="311.057073"/>
    </g>
   </g>
   <g id="PolyCollection_1">
    <defs>
     <path d="M 66.942634 -82.447803 
L 66.942634 -63.921615 
L 69.438309 -66.702181 
L 71.933985 -69.482746 
L 74.42966 -72.263312 
L 76.925335 -75.043877 
L 79.421011 -77.824443 
L 81.916686 -80.605008 
L 84.412362 -83.346428 
L 86.908037 -85.999154 
L 89.403713 -88.668191 
L 91.899388 -91.284109 
L 94.395063 -93.704279 
L 96.890739 -96.124449 
L 99.386414 -98.544618 
L 101.88209 -100.964788 
L 104.377765 -103.384957 
L 106.87344 -105.805127 
L 109.369116 -108.225296 
L 111.864791 -110.645466 
L 114.360467 -113.065636 
L 116.856142 -115.485805 
L 119.351818 -117.905975 
L 121.847493 -120.326144 
L 124.343168 -122.746314 
L 126.838844 -125.166483 
L 129.334519 -127.586653 
L 131.830195 -130.006822 
L 134.32587 -132.426992 
L 136.821545 -134.847162 
L 139.317221 -137.267331 
L 141.812896 -139.687501 
L 144.308572 -142.10767 
L 146.804247 -144.52784 
L 149.299922 -146.948009 
L 151.795598 -149.368179 
L 154.291273 -151.788349 
L 156.786949 -154.208518 
L 159.282624 -156.628688 
L 161.7783 -159.048857 
L 164.273975 -161.469027 
L 166.76965 -163.889196 
L 169.265326 -166.309366 
L 171.761001 -168.729536 
L 174.256677 -171.149705 
L 176.752352 -173.569875 
L 179.248027 -175.990044 
L 181.743703 -178.410214 
L 184.239378 -180.830383 
L 186.735054 -183.250553 
L 189.230729 -185.670723 
L 191.726405 -188.090892 
L 194.22208 -190.511062 
L 196.717755 -192.931231 
L 199.213431 -195.351401 
L 201.709106 -197.77157 
L 204.204782 -200.19174 
L 206.700457 -202.61191 
L 209.196132 -205.032079 
L 211.691808 -207.452249 
L 214.187483 -209.872418 
L 216.683159 -212.292588 
L 219.178834 -214.712757 
L 221.67451 -217.132927 
L 224.170185 -219.553125 
L 226.66586 -221.973345 
L 229.161536 -224.393565 
L 231.657211 -226.813785 
L 234.152887 -229.234005 
L 236.648562 -231.654225 
L 239.144237 -234.074445 
L 241.639913 -236.494664 
L 244.135588 -238.914884 
L 246.631264 -241.335104 
L 249.126939 -243.755324 
L 251.622614 -246.175544 
L 254.11829 -248.595764 
L 256.613965 -251.015984 
L 259.109641 -253.436204 
L 261.605316 -255.856424 
L 264.100992 -258.280035 
L 266.596667 -260.705117 
L 269.092342 -263.130199 
L 271.588018 -265.555281 
L 274.083693 -267.980363 
L 276.579369 -270.405446 
L 279.075044 -272.830528 
L 281.570719 -275.25561 
L 284.066395 -277.680692 
L 286.56207 -280.105774 
L 289.057746 -282.530856 
L 291.553421 -284.954055 
L 294.049097 -287.364299 
L 296.544772 -289.774543 
L 299.040447 -292.184787 
L 301.536123 -294.595031 
L 304.031798 -297.005275 
L 306.527474 -299.418177 
L 309.023149 -301.838272 
L 311.518824 -304.258367 
L 314.0145 -306.646252 
L 314.0145 -339.197979 
L 314.0145 -339.197979 
L 311.518824 -336.417497 
L 309.023149 -333.637015 
L 306.527474 -330.856533 
L 304.031798 -328.076051 
L 301.536123 -325.295569 
L 299.040447 -322.515087 
L 296.544772 -319.734605 
L 294.049097 -316.954123 
L 291.553421 -314.173641 
L 289.057746 -311.393159 
L 286.56207 -308.612677 
L 284.066395 -305.832195 
L 281.570719 -303.051713 
L 279.075044 -300.271231 
L 276.579369 -297.490749 
L 274.083693 -294.710267 
L 271.588018 -291.929786 
L 269.092342 -289.149304 
L 266.596667 -286.368822 
L 264.100992 -283.58834 
L 261.605316 -280.807858 
L 259.109641 -278.027376 
L 256.613965 -275.246894 
L 254.11829 -272.466412 
L 251.622614 -269.68593 
L 249.126939 -266.905448 
L 246.631264 -264.124966 
L 244.135588 -261.344484 
L 241.639913 -258.564002 
L 239.144237 -255.78352 
L 236.648562 -253.003038 
L 234.152887 -250.222556 
L 231.657211 -247.442074 
L 229.161536 -244.661592 
L 226.66586 -241.88111 
L 224.170185 -239.100582 
L 221.67451 -236.319925 
L 219.178834 -233.539269 
L 216.683159 -230.758613 
L 214.187483 -227.977956 
L 211.691808 -225.1973 
L 209.196132 -222.416644 
L 206.700457 -219.63715 
L 204.204782 -216.862139 
L 201.709106 -214.087129 
L 199.213431 -211.312118 
L 196.717755 -208.537108 
L 194.22208 -205.91522 
L 191.726405 -203.132095 
L 189.230729 -200.351454 
L 186.735054 -197.574233 
L 184.239378 -194.797012 
L 181.743703 -192.019792 
L 179.248027 -189.27148 
L 176.752352 -186.54003 
L 174.256677 -183.80858 
L 171.761001 -181.218713 
L 169.265326 -178.942168 
L 166.76965 -176.295336 
L 164.273975 -173.468683 
L 161.7783 -170.642031 
L 159.282624 -167.815379 
L 156.786949 -164.988727 
L 154.291273 -162.162075 
L 151.795598 -159.743141 
L 149.299922 -157.469749 
L 146.804247 -155.196356 
L 144.308572 -152.922964 
L 141.812896 -150.649572 
L 139.317221 -148.37618 
L 136.821545 -146.102787 
L 134.32587 -143.829395 
L 131.830195 -141.556003 
L 129.334519 -139.28261 
L 126.838844 -137.009218 
L 124.343168 -134.735826 
L 121.847493 -132.462433 
L 119.351818 -130.189041 
L 116.856142 -127.915649 
L 114.360467 -125.642256 
L 111.864791 -123.368864 
L 109.369116 -121.095472 
L 106.87344 -118.82208 
L 104.377765 -116.548687 
L 101.88209 -114.275295 
L 99.386414 -112.001903 
L 96.890739 -109.72851 
L 94.395063 -107.455118 
L 91.899388 -105.181726 
L 89.403713 -102.908333 
L 86.908037 -100.634941 
L 84.412362 -98.361549 
L 81.916686 -96.088156 
L 79.421011 -93.814764 
L 76.925335 -91.541372 
L 74.42966 -89.26798 
L 71.933985 -86.994587 
L 69.438309 -84.721195 
L 66.942634 -82.447803 
z
" id="mc7d93c3334" style="stroke:#ffffff;stroke-opacity:0.15;"/>
    </defs>
    <g clip-path="url(#pc4936b2e8d)">
     <use style="fill:#f77189;fill-opacity:0.15;stroke:#ffffff;stroke-opacity:0.15;" x="0" xlink:href="#mc7d93c3334" y="377.413297"/>
    </g>
   </g>
   <g id="LineCollection_1">
    <path clip-path="url(#pc4936b2e8d)" d="M 290.02694 70.767045 
L 338.00206 70.767045 
" style="fill:none;stroke:#f77189;stroke-width:1.5;"/>
    <path clip-path="url(#pc4936b2e8d)" d="M 184.481677 170.599542 
L 206.070481 170.599542 
" style="fill:none;stroke:#f77189;stroke-width:1.5;"/>
    <path clip-path="url(#pc4936b2e8d)" d="M 125.712155 240.828307 
L 137.705935 240.828307 
" style="fill:none;stroke:#f77189;stroke-width:1.5;"/>
    <path clip-path="url(#pc4936b2e8d)" d="M 89.730816 281.581496 
L 101.724596 281.581496 
" style="fill:none;stroke:#f77189;stroke-width:1.5;"/>
    <path clip-path="url(#pc4936b2e8d)" d="M 64.543878 311.057073 
L 69.34139 311.057073 
" style="fill:none;stroke:#f77189;stroke-width:1.5;"/>
   </g>
   <g id="LineCollection_2">
    <path clip-path="url(#pc4936b2e8d)" d="M 314.0145 96.397982 
L 314.0145 45.136109 
" style="fill:none;stroke:#f77189;stroke-width:1.5;"/>
    <path clip-path="url(#pc4936b2e8d)" d="M 195.276079 182.133463 
L 195.276079 159.065621 
" style="fill:none;stroke:#f77189;stroke-width:1.5;"/>
    <path clip-path="url(#pc4936b2e8d)" d="M 131.709045 245.954495 
L 131.709045 235.70212 
" style="fill:none;stroke:#f77189;stroke-width:1.5;"/>
    <path clip-path="url(#pc4936b2e8d)" d="M 95.727706 284.14459 
L 95.727706 279.018402 
" style="fill:none;stroke:#f77189;stroke-width:1.5;"/>
    <path clip-path="url(#pc4936b2e8d)" d="M 66.942634 312.338619 
L 66.942634 309.775526 
" style="fill:none;stroke:#f77189;stroke-width:1.5;"/>
   </g>
   <g id="line2d_11">
    <path clip-path="url(#pc4936b2e8d)" d="M 66.942634 306.753041 
L 69.438309 304.310717 
L 71.933985 301.868392 
L 74.42966 299.426068 
L 76.925335 296.983743 
L 79.421011 294.541419 
L 81.916686 292.099094 
L 84.412362 289.65677 
L 86.908037 287.214445 
L 89.403713 284.772121 
L 91.899388 282.329796 
L 94.395063 279.887472 
L 96.890739 277.445147 
L 99.386414 275.002823 
L 101.88209 272.560498 
L 104.377765 270.118174 
L 106.87344 267.675849 
L 109.369116 265.233525 
L 111.864791 262.7912 
L 114.360467 260.348876 
L 116.856142 257.906551 
L 119.351818 255.464227 
L 121.847493 253.021902 
L 124.343168 250.579578 
L 126.838844 248.137253 
L 129.334519 245.694929 
L 131.830195 243.252604 
L 134.32587 240.81028 
L 136.821545 238.367955 
L 139.317221 235.925631 
L 141.812896 233.483306 
L 144.308572 231.040982 
L 146.804247 228.598657 
L 149.299922 226.156333 
L 151.795598 223.714008 
L 154.291273 221.271684 
L 156.786949 218.829359 
L 159.282624 216.387035 
L 161.7783 213.94471 
L 164.273975 211.502386 
L 166.76965 209.060061 
L 169.265326 206.617737 
L 171.761001 204.175412 
L 174.256677 201.733088 
L 176.752352 199.290763 
L 179.248027 196.848439 
L 181.743703 194.406114 
L 184.239378 191.96379 
L 186.735054 189.521465 
L 189.230729 187.079141 
L 191.726405 184.636816 
L 194.22208 182.194492 
L 196.717755 179.752167 
L 199.213431 177.309843 
L 201.709106 174.867518 
L 204.204782 172.425194 
L 206.700457 169.982869 
L 209.196132 167.540545 
L 211.691808 165.09822 
L 214.187483 162.655896 
L 216.683159 160.213571 
L 219.178834 157.771247 
L 221.67451 155.328922 
L 224.170185 152.886598 
L 226.66586 150.444273 
L 229.161536 148.001949 
L 231.657211 145.559624 
L 234.152887 143.1173 
L 236.648562 140.674975 
L 239.144237 138.232651 
L 241.639913 135.790326 
L 244.135588 133.348002 
L 246.631264 130.905677 
L 249.126939 128.463353 
L 251.622614 126.021028 
L 254.11829 123.578704 
L 256.613965 121.13638 
L 259.109641 118.694055 
L 261.605316 116.251731 
L 264.100992 113.809406 
L 266.596667 111.367082 
L 269.092342 108.924757 
L 271.588018 106.482433 
L 274.083693 104.040108 
L 276.579369 101.597784 
L 279.075044 99.155459 
L 281.570719 96.713135 
L 284.066395 94.27081 
L 286.56207 91.828486 
L 289.057746 89.386161 
L 291.553421 86.943837 
L 294.049097 84.501512 
L 296.544772 82.059188 
L 299.040447 79.616863 
L 301.536123 77.174539 
L 304.031798 74.732214 
L 306.527474 72.28989 
L 309.023149 69.847565 
L 311.518824 67.405241 
L 314.0145 64.962916 
" style="fill:none;stroke:#f77189;stroke-linecap:round;stroke-width:2.25;"/>
   </g>
   <g id="patch_3">
    <path d="M 50.870969 327.2555 
L 50.870969 24.4515 
" style="fill:none;stroke:#ffffff;stroke-linecap:square;stroke-linejoin:miter;stroke-width:1.25;"/>
   </g>
   <g id="patch_4">
    <path d="M 50.870969 327.2555 
L 351.674969 327.2555 
" style="fill:none;stroke:#ffffff;stroke-linecap:square;stroke-linejoin:miter;stroke-width:1.25;"/>
   </g>
   <g id="text_13">
    <!-- $R\ vs\ A^{-1}$ -->
    <g style="fill:#262626;" transform="translate(167.888969 18.4515)scale(0.156 -0.156)">
     <defs>
      <path d="M 7.171875 54.6875 
L 16.703125 54.6875 
L 24.703125 8.203125 
L 50.875 54.6875 
L 60.40625 54.6875 
L 29.296875 0 
L 17.1875 0 
z
" id="DejaVuSans-Oblique-118"/>
      <path d="M 50 53.078125 
L 48.296875 44.578125 
Q 44.734375 46.53125 40.765625 47.5 
Q 36.8125 48.484375 32.625 48.484375 
Q 25.53125 48.484375 21.453125 46.0625 
Q 17.390625 43.65625 17.390625 39.5 
Q 17.390625 34.671875 26.859375 32.078125 
Q 27.59375 31.890625 27.9375 31.78125 
L 30.8125 30.90625 
Q 39.796875 28.421875 42.796875 25.6875 
Q 45.796875 22.953125 45.796875 18.21875 
Q 45.796875 9.515625 38.890625 4.046875 
Q 31.984375 -1.421875 20.796875 -1.421875 
Q 16.453125 -1.421875 11.671875 -0.578125 
Q 6.890625 0.25 1.125 2 
L 2.875 11.28125 
Q 7.8125 8.734375 12.59375 7.421875 
Q 17.390625 6.109375 21.78125 6.109375 
Q 28.375 6.109375 32.5 8.9375 
Q 36.625 11.765625 36.625 16.109375 
Q 36.625 20.796875 25.78125 23.6875 
L 24.859375 23.921875 
L 21.78125 24.703125 
Q 14.9375 26.515625 11.765625 29.46875 
Q 8.59375 32.421875 8.59375 37.015625 
Q 8.59375 45.75 15.15625 50.875 
Q 21.734375 56 33.015625 56 
Q 37.453125 56 41.671875 55.265625 
Q 45.90625 54.546875 50 53.078125 
z
" id="DejaVuSans-Oblique-115"/>
     </defs>
     <use transform="translate(0 0.684375)" xlink:href="#DejaVuSans-Oblique-82"/>
     <use transform="translate(101.9528 0.684375)" xlink:href="#DejaVuSans-Oblique-118"/>
     <use transform="translate(161.132488 0.684375)" xlink:href="#DejaVuSans-Oblique-115"/>
     <use transform="translate(245.702476 0.684375)" xlink:href="#DejaVuSans-Oblique-65"/>
     <use transform="translate(321.12745 38.965625)scale(0.7)" xlink:href="#DejaVuSans-8722"/>
     <use transform="translate(379.779793 38.965625)scale(0.7)" xlink:href="#DejaVuSans-49"/>
    </g>
   </g>
  </g>
 </g>
 <defs>
  <clipPath id="pc4936b2e8d">
   <rect height="302.804" width="300.804" x="50.870969" y="24.4515"/>
  </clipPath>
 </defs>
</svg>
