<?xml version="1.0" encoding="utf-8" standalone="no"?>
<!DOCTYPE svg PUBLIC "-//W3C//DTD SVG 1.1//EN"
  "http://www.w3.org/Graphics/SVG/1.1/DTD/svg11.dtd">
<!-- Created with matplotlib (https://matplotlib.org/) -->
<svg height="377.413297pt" version="1.1" viewBox="0 0 358.874969 377.413297" width="358.874969pt" xmlns="http://www.w3.org/2000/svg" xmlns:xlink="http://www.w3.org/1999/xlink">
 <metadata>
  <rdf:RDF xmlns:cc="http://creativecommons.org/ns#" xmlns:dc="http://purl.org/dc/elements/1.1/" xmlns:rdf="http://www.w3.org/1999/02/22-rdf-syntax-ns#">
   <cc:Work>
    <dc:type rdf:resource="http://purl.org/dc/dcmitype/StillImage"/>
    <dc:date>2021-03-10T02:19:53.231477</dc:date>
    <dc:format>image/svg+xml</dc:format>
    <dc:creator>
     <cc:Agent>
      <dc:title>Matplotlib v3.3.4, https://matplotlib.org/</dc:title>
     </cc:Agent>
    </dc:creator>
   </cc:Work>
  </rdf:RDF>
 </metadata>
 <defs>
  <style type="text/css">*{stroke-linecap:butt;stroke-linejoin:round;}</style>
 </defs>
 <g id="figure_1">
  <g id="patch_1">
   <path d="M 0 377.413297 
L 358.874969 377.413297 
L 358.874969 0 
L 0 0 
z
" style="fill:#ffffff;"/>
  </g>
  <g id="axes_1">
   <g id="patch_2">
    <path d="M 50.870969 327.2555 
L 351.674969 327.2555 
L 351.674969 24.4515 
L 50.870969 24.4515 
z
" style="fill:#eaeaf2;"/>
   </g>
   <g id="matplotlib.axis_1">
    <g id="xtick_1">
     <g id="line2d_1">
      <path clip-path="url(#p7f5bbf74a4)" d="M 86.132682 327.2555 
L 86.132682 24.4515 
" style="fill:none;stroke:#ffffff;stroke-linecap:round;"/>
     </g>
     <g id="text_1">
      <!-- 5 -->
      <g style="fill:#262626;" transform="translate(82.156611 346.991172)scale(0.143 -0.143)">
       <defs>
        <path d="M 4.15625 18.75 
L 13.375 19.53125 
Q 14.40625 12.796875 18.140625 9.390625 
Q 21.875 6 27.15625 6 
Q 33.5 6 37.890625 10.78125 
Q 42.28125 15.578125 42.28125 23.484375 
Q 42.28125 31 38.0625 35.34375 
Q 33.84375 39.703125 27 39.703125 
Q 22.75 39.703125 19.328125 37.765625 
Q 15.921875 35.84375 13.96875 32.765625 
L 5.71875 33.84375 
L 12.640625 70.609375 
L 48.25 70.609375 
L 48.25 62.203125 
L 19.671875 62.203125 
L 15.828125 42.96875 
Q 22.265625 47.46875 29.34375 47.46875 
Q 38.71875 47.46875 45.15625 40.96875 
Q 51.609375 34.46875 51.609375 24.265625 
Q 51.609375 14.546875 45.953125 7.46875 
Q 39.0625 -1.21875 27.15625 -1.21875 
Q 17.390625 -1.21875 11.203125 4.25 
Q 5.03125 9.71875 4.15625 18.75 
z
" id="ArialMT-53"/>
       </defs>
       <use xlink:href="#ArialMT-53"/>
      </g>
     </g>
    </g>
    <g id="xtick_2">
     <g id="line2d_2">
      <path clip-path="url(#p7f5bbf74a4)" d="M 146.101581 327.2555 
L 146.101581 24.4515 
" style="fill:none;stroke:#ffffff;stroke-linecap:round;"/>
     </g>
     <g id="text_2">
      <!-- 10 -->
      <g style="fill:#262626;" transform="translate(138.149441 346.991172)scale(0.143 -0.143)">
       <defs>
        <path d="M 37.25 0 
L 28.46875 0 
L 28.46875 56 
Q 25.296875 52.984375 20.140625 49.953125 
Q 14.984375 46.921875 10.890625 45.40625 
L 10.890625 53.90625 
Q 18.265625 57.375 23.78125 62.296875 
Q 29.296875 67.234375 31.59375 71.875 
L 37.25 71.875 
z
" id="ArialMT-49"/>
        <path d="M 4.15625 35.296875 
Q 4.15625 48 6.765625 55.734375 
Q 9.375 63.484375 14.515625 67.671875 
Q 19.671875 71.875 27.484375 71.875 
Q 33.25 71.875 37.59375 69.546875 
Q 41.9375 67.234375 44.765625 62.859375 
Q 47.609375 58.5 49.21875 52.21875 
Q 50.828125 45.953125 50.828125 35.296875 
Q 50.828125 22.703125 48.234375 14.96875 
Q 45.65625 7.234375 40.5 3 
Q 35.359375 -1.21875 27.484375 -1.21875 
Q 17.140625 -1.21875 11.234375 6.203125 
Q 4.15625 15.140625 4.15625 35.296875 
z
M 13.1875 35.296875 
Q 13.1875 17.671875 17.3125 11.828125 
Q 21.4375 6 27.484375 6 
Q 33.546875 6 37.671875 11.859375 
Q 41.796875 17.71875 41.796875 35.296875 
Q 41.796875 52.984375 37.671875 58.78125 
Q 33.546875 64.59375 27.390625 64.59375 
Q 21.34375 64.59375 17.71875 59.46875 
Q 13.1875 52.9375 13.1875 35.296875 
z
" id="ArialMT-48"/>
       </defs>
       <use xlink:href="#ArialMT-49"/>
       <use x="55.615234" xlink:href="#ArialMT-48"/>
      </g>
     </g>
    </g>
    <g id="xtick_3">
     <g id="line2d_3">
      <path clip-path="url(#p7f5bbf74a4)" d="M 206.070481 327.2555 
L 206.070481 24.4515 
" style="fill:none;stroke:#ffffff;stroke-linecap:round;"/>
     </g>
     <g id="text_3">
      <!-- 15 -->
      <g style="fill:#262626;" transform="translate(198.11834 346.991172)scale(0.143 -0.143)">
       <use xlink:href="#ArialMT-49"/>
       <use x="55.615234" xlink:href="#ArialMT-53"/>
      </g>
     </g>
    </g>
    <g id="xtick_4">
     <g id="line2d_4">
      <path clip-path="url(#p7f5bbf74a4)" d="M 266.03938 327.2555 
L 266.03938 24.4515 
" style="fill:none;stroke:#ffffff;stroke-linecap:round;"/>
     </g>
     <g id="text_4">
      <!-- 20 -->
      <g style="fill:#262626;" transform="translate(258.08724 346.991172)scale(0.143 -0.143)">
       <defs>
        <path d="M 50.34375 8.453125 
L 50.34375 0 
L 3.03125 0 
Q 2.9375 3.171875 4.046875 6.109375 
Q 5.859375 10.9375 9.828125 15.625 
Q 13.8125 20.3125 21.34375 26.46875 
Q 33.015625 36.03125 37.109375 41.625 
Q 41.21875 47.21875 41.21875 52.203125 
Q 41.21875 57.421875 37.46875 61 
Q 33.734375 64.59375 27.734375 64.59375 
Q 21.390625 64.59375 17.578125 60.78125 
Q 13.765625 56.984375 13.71875 50.25 
L 4.6875 51.171875 
Q 5.609375 61.28125 11.65625 66.578125 
Q 17.71875 71.875 27.9375 71.875 
Q 38.234375 71.875 44.234375 66.15625 
Q 50.25 60.453125 50.25 52 
Q 50.25 47.703125 48.484375 43.546875 
Q 46.734375 39.40625 42.65625 34.8125 
Q 38.578125 30.21875 29.109375 22.21875 
Q 21.1875 15.578125 18.9375 13.203125 
Q 16.703125 10.84375 15.234375 8.453125 
z
" id="ArialMT-50"/>
       </defs>
       <use xlink:href="#ArialMT-50"/>
       <use x="55.615234" xlink:href="#ArialMT-48"/>
      </g>
     </g>
    </g>
    <g id="xtick_5">
     <g id="line2d_5">
      <path clip-path="url(#p7f5bbf74a4)" d="M 326.00828 327.2555 
L 326.00828 24.4515 
" style="fill:none;stroke:#ffffff;stroke-linecap:round;"/>
     </g>
     <g id="text_5">
      <!-- 25 -->
      <g style="fill:#262626;" transform="translate(318.056139 346.991172)scale(0.143 -0.143)">
       <use xlink:href="#ArialMT-50"/>
       <use x="55.615234" xlink:href="#ArialMT-53"/>
      </g>
     </g>
    </g>
    <g id="text_6">
     <!-- $A^{-1} (mm^{-2})$ -->
     <g style="fill:#262626;" transform="translate(157.202969 367.112797)scale(0.156 -0.156)">
      <defs>
       <path d="M 36.8125 72.90625 
L 48 72.90625 
L 61.53125 0 
L 51.21875 0 
L 48.1875 18.703125 
L 15.375 18.703125 
L 5.078125 0 
L -5.328125 0 
z
M 40.375 63.1875 
L 19.921875 26.90625 
L 46.6875 26.90625 
z
" id="DejaVuSans-Oblique-65"/>
       <path d="M 10.59375 35.5 
L 73.1875 35.5 
L 73.1875 27.203125 
L 10.59375 27.203125 
z
" id="DejaVuSans-8722"/>
       <path d="M 12.40625 8.296875 
L 28.515625 8.296875 
L 28.515625 63.921875 
L 10.984375 60.40625 
L 10.984375 69.390625 
L 28.421875 72.90625 
L 38.28125 72.90625 
L 38.28125 8.296875 
L 54.390625 8.296875 
L 54.390625 0 
L 12.40625 0 
z
" id="DejaVuSans-49"/>
       <path d="M 31 75.875 
Q 24.46875 64.65625 21.28125 53.65625 
Q 18.109375 42.671875 18.109375 31.390625 
Q 18.109375 20.125 21.3125 9.0625 
Q 24.515625 -2 31 -13.1875 
L 23.1875 -13.1875 
Q 15.875 -1.703125 12.234375 9.375 
Q 8.59375 20.453125 8.59375 31.390625 
Q 8.59375 42.28125 12.203125 53.3125 
Q 15.828125 64.359375 23.1875 75.875 
z
" id="DejaVuSans-40"/>
       <path d="M 89.796875 33.015625 
L 83.40625 0 
L 74.421875 0 
L 80.71875 32.71875 
Q 81.109375 34.8125 81.296875 36.328125 
Q 81.5 37.84375 81.5 38.921875 
Q 81.5 43.3125 79.046875 45.75 
Q 76.609375 48.1875 72.21875 48.1875 
Q 65.671875 48.1875 60.546875 43.28125 
Q 55.421875 38.375 53.90625 30.515625 
L 47.90625 0 
L 38.921875 0 
L 45.3125 32.71875 
Q 45.703125 34.515625 45.890625 36.046875 
Q 46.09375 37.59375 46.09375 38.8125 
Q 46.09375 43.265625 43.65625 45.71875 
Q 41.21875 48.1875 36.921875 48.1875 
Q 30.28125 48.1875 25.140625 43.28125 
Q 20.015625 38.375 18.5 30.515625 
L 12.5 0 
L 3.515625 0 
L 14.203125 54.6875 
L 23.1875 54.6875 
L 21.484375 46.1875 
Q 25.140625 50.984375 30.046875 53.484375 
Q 34.96875 56 40.578125 56 
Q 46.53125 56 50.359375 52.875 
Q 54.203125 49.75 54.984375 44.1875 
Q 59.078125 49.953125 64.46875 52.96875 
Q 69.875 56 75.875 56 
Q 82.90625 56 86.734375 51.953125 
Q 90.578125 47.90625 90.578125 40.484375 
Q 90.578125 38.875 90.375 36.9375 
Q 90.1875 35.015625 89.796875 33.015625 
z
" id="DejaVuSans-Oblique-109"/>
       <path d="M 19.1875 8.296875 
L 53.609375 8.296875 
L 53.609375 0 
L 7.328125 0 
L 7.328125 8.296875 
Q 12.9375 14.109375 22.625 23.890625 
Q 32.328125 33.6875 34.8125 36.53125 
Q 39.546875 41.84375 41.421875 45.53125 
Q 43.3125 49.21875 43.3125 52.78125 
Q 43.3125 58.59375 39.234375 62.25 
Q 35.15625 65.921875 28.609375 65.921875 
Q 23.96875 65.921875 18.8125 64.3125 
Q 13.671875 62.703125 7.8125 59.421875 
L 7.8125 69.390625 
Q 13.765625 71.78125 18.9375 73 
Q 24.125 74.21875 28.421875 74.21875 
Q 39.75 74.21875 46.484375 68.546875 
Q 53.21875 62.890625 53.21875 53.421875 
Q 53.21875 48.921875 51.53125 44.890625 
Q 49.859375 40.875 45.40625 35.40625 
Q 44.1875 33.984375 37.640625 27.21875 
Q 31.109375 20.453125 19.1875 8.296875 
z
" id="DejaVuSans-50"/>
       <path d="M 8.015625 75.875 
L 15.828125 75.875 
Q 23.140625 64.359375 26.78125 53.3125 
Q 30.421875 42.28125 30.421875 31.390625 
Q 30.421875 20.453125 26.78125 9.375 
Q 23.140625 -1.703125 15.828125 -13.1875 
L 8.015625 -13.1875 
Q 14.5 -2 17.703125 9.0625 
Q 20.90625 20.125 20.90625 31.390625 
Q 20.90625 42.671875 17.703125 53.65625 
Q 14.5 64.65625 8.015625 75.875 
z
" id="DejaVuSans-41"/>
      </defs>
      <use transform="translate(0 0.765625)" xlink:href="#DejaVuSans-Oblique-65"/>
      <use transform="translate(75.424974 39.046875)scale(0.7)" xlink:href="#DejaVuSans-8722"/>
      <use transform="translate(134.077318 39.046875)scale(0.7)" xlink:href="#DejaVuSans-49"/>
      <use transform="translate(181.347826 0.765625)" xlink:href="#DejaVuSans-40"/>
      <use transform="translate(220.361497 0.765625)" xlink:href="#DejaVuSans-Oblique-109"/>
      <use transform="translate(317.773607 0.765625)" xlink:href="#DejaVuSans-Oblique-109"/>
      <use transform="translate(419.835612 39.046875)scale(0.7)" xlink:href="#DejaVuSans-8722"/>
      <use transform="translate(478.487956 39.046875)scale(0.7)" xlink:href="#DejaVuSans-50"/>
      <use transform="translate(525.758464 0.765625)" xlink:href="#DejaVuSans-41"/>
     </g>
    </g>
   </g>
   <g id="matplotlib.axis_2">
    <g id="ytick_1">
     <g id="line2d_6">
      <path clip-path="url(#p7f5bbf74a4)" d="M 50.870969 292.091792 
L 351.674969 292.091792 
" style="fill:none;stroke:#ffffff;stroke-linecap:round;"/>
     </g>
     <g id="text_7">
      <!-- 5 -->
      <g style="fill:#262626;" transform="translate(33.418828 297.209628)scale(0.143 -0.143)">
       <use xlink:href="#ArialMT-53"/>
      </g>
     </g>
    </g>
    <g id="ytick_2">
     <g id="line2d_7">
      <path clip-path="url(#p7f5bbf74a4)" d="M 50.870969 228.01928 
L 351.674969 228.01928 
" style="fill:none;stroke:#ffffff;stroke-linecap:round;"/>
     </g>
     <g id="text_8">
      <!-- 10 -->
      <g style="fill:#262626;" transform="translate(25.466688 233.137116)scale(0.143 -0.143)">
       <use xlink:href="#ArialMT-49"/>
       <use x="55.615234" xlink:href="#ArialMT-48"/>
      </g>
     </g>
    </g>
    <g id="ytick_3">
     <g id="line2d_8">
      <path clip-path="url(#p7f5bbf74a4)" d="M 50.870969 163.946768 
L 351.674969 163.946768 
" style="fill:none;stroke:#ffffff;stroke-linecap:round;"/>
     </g>
     <g id="text_9">
      <!-- 15 -->
      <g style="fill:#262626;" transform="translate(25.466688 169.064604)scale(0.143 -0.143)">
       <use xlink:href="#ArialMT-49"/>
       <use x="55.615234" xlink:href="#ArialMT-53"/>
      </g>
     </g>
    </g>
    <g id="ytick_4">
     <g id="line2d_9">
      <path clip-path="url(#p7f5bbf74a4)" d="M 50.870969 99.874256 
L 351.674969 99.874256 
" style="fill:none;stroke:#ffffff;stroke-linecap:round;"/>
     </g>
     <g id="text_10">
      <!-- 20 -->
      <g style="fill:#262626;" transform="translate(25.466688 104.992092)scale(0.143 -0.143)">
       <use xlink:href="#ArialMT-50"/>
       <use x="55.615234" xlink:href="#ArialMT-48"/>
      </g>
     </g>
    </g>
    <g id="ytick_5">
     <g id="line2d_10">
      <path clip-path="url(#p7f5bbf74a4)" d="M 50.870969 35.801743 
L 351.674969 35.801743 
" style="fill:none;stroke:#ffffff;stroke-linecap:round;"/>
     </g>
     <g id="text_11">
      <!-- 25 -->
      <g style="fill:#262626;" transform="translate(25.466688 40.919579)scale(0.143 -0.143)">
       <use xlink:href="#ArialMT-50"/>
       <use x="55.615234" xlink:href="#ArialMT-53"/>
      </g>
     </g>
    </g>
    <g id="text_12">
     <!-- $R (\Omega)$ -->
     <g style="fill:#262626;" transform="translate(18.366188 193.3255)rotate(-90)scale(0.156 -0.156)">
      <defs>
       <path d="M 25.203125 64.796875 
L 20.21875 38.921875 
L 32.90625 38.921875 
Q 40.375 38.921875 44.984375 43.046875 
Q 49.609375 47.171875 49.609375 53.8125 
Q 49.609375 59.125 46.5 61.953125 
Q 43.40625 64.796875 37.59375 64.796875 
z
M 43.3125 35.015625 
Q 46.4375 34.28125 48.515625 31.390625 
Q 50.59375 28.515625 53.328125 19.921875 
L 59.515625 0 
L 49.125 0 
L 43.40625 18.703125 
Q 41.21875 25.921875 38.328125 28.359375 
Q 35.453125 30.8125 29.5 30.8125 
L 18.609375 30.8125 
L 12.59375 0 
L 2.6875 0 
L 16.890625 72.90625 
L 39.109375 72.90625 
Q 49.21875 72.90625 54.609375 68.328125 
Q 60.015625 63.765625 60.015625 55.171875 
Q 60.015625 47.5625 55.421875 41.984375 
Q 50.828125 36.421875 43.3125 35.015625 
z
" id="DejaVuSans-Oblique-82"/>
       <path d="M 72.609375 8.6875 
L 72.609375 0 
L 43.3125 0 
L 43.3125 8.6875 
Q 51.953125 13.421875 56.78125 21.53125 
Q 61.625 29.640625 61.625 39.5 
Q 61.625 51.21875 55.171875 58.296875 
Q 48.734375 65.375 38.1875 65.375 
Q 27.640625 65.375 21.171875 58.265625 
Q 14.703125 51.171875 14.703125 39.5 
Q 14.703125 29.640625 19.53125 21.53125 
Q 24.421875 13.421875 33.109375 8.6875 
L 33.109375 0 
L 3.8125 0 
L 3.8125 8.6875 
L 19.390625 8.6875 
Q 11.671875 15.484375 8.109375 22.75 
Q 4.59375 30.03125 4.59375 39.015625 
Q 4.59375 54.546875 13.96875 64.15625 
Q 23.296875 73.78125 38.1875 73.78125 
Q 52.984375 73.78125 62.40625 64.15625 
Q 71.78125 54.59375 71.78125 39.5 
Q 71.78125 30.03125 68.3125 22.796875 
Q 64.84375 15.578125 56.984375 8.6875 
z
" id="DejaVuSans-937"/>
      </defs>
      <use transform="translate(0 0.125)" xlink:href="#DejaVuSans-Oblique-82"/>
      <use transform="translate(69.482422 0.125)" xlink:href="#DejaVuSans-40"/>
      <use transform="translate(108.496094 0.125)" xlink:href="#DejaVuSans-937"/>
      <use transform="translate(184.912109 0.125)" xlink:href="#DejaVuSans-41"/>
     </g>
    </g>
   </g>
   <g id="PathCollection_1">
    <defs>
     <path d="M 0 4.1833 
C 1.109424 4.1833 2.173559 3.742521 2.95804 2.95804 
C 3.742521 2.173559 4.1833 1.109424 4.1833 0 
C 4.1833 -1.109424 3.742521 -2.173559 2.95804 -2.95804 
C 2.173559 -3.742521 1.109424 -4.1833 0 -4.1833 
C -1.109424 -4.1833 -2.173559 -3.742521 -2.95804 -2.95804 
C -3.742521 -2.173559 -4.1833 -1.109424 -4.1833 0 
C -4.1833 1.109424 -3.742521 2.173559 -2.95804 2.95804 
C -2.173559 3.742521 -1.109424 4.1833 0 4.1833 
z
" id="mff6e055e2a" style="stroke:#ffffff;stroke-opacity:0.8;"/>
    </defs>
    <g clip-path="url(#p7f5bbf74a4)">
     <use style="fill:#f77189;fill-opacity:0.8;stroke:#ffffff;stroke-opacity:0.8;" x="314.0145" xlink:href="#mff6e055e2a" y="70.785335"/>
     <use style="fill:#f77189;fill-opacity:0.8;stroke:#ffffff;stroke-opacity:0.8;" x="195.276079" xlink:href="#mff6e055e2a" y="170.610309"/>
     <use style="fill:#f77189;fill-opacity:0.8;stroke:#ffffff;stroke-opacity:0.8;" x="131.709045" xlink:href="#mff6e055e2a" y="240.833783"/>
     <use style="fill:#f77189;fill-opacity:0.8;stroke:#ffffff;stroke-opacity:0.8;" x="95.727706" xlink:href="#mff6e055e2a" y="281.5839"/>
     <use style="fill:#f77189;fill-opacity:0.8;stroke:#ffffff;stroke-opacity:0.8;" x="66.942634" xlink:href="#mff6e055e2a" y="311.057256"/>
    </g>
   </g>
   <g id="PolyCollection_1">
    <defs>
     <path d="M 66.942634 -85.275359 
L 66.942634 -63.921615 
L 69.438309 -66.701971 
L 71.933985 -69.482327 
L 74.42966 -72.262683 
L 76.925335 -75.043039 
L 79.421011 -77.823395 
L 81.916686 -80.603751 
L 84.412362 -83.344964 
L 86.908037 -86.097535 
L 89.403713 -88.666326 
L 91.899388 -91.282048 
L 94.395063 -93.702035 
L 96.890739 -96.122022 
L 99.386414 -98.542009 
L 101.88209 -100.961996 
L 104.377765 -103.381984 
L 106.87344 -105.801971 
L 109.369116 -108.221958 
L 111.864791 -110.641945 
L 114.360467 -113.061932 
L 116.856142 -115.48192 
L 119.351818 -117.901907 
L 121.847493 -120.321894 
L 124.343168 -122.741881 
L 126.838844 -125.161868 
L 129.334519 -127.581856 
L 131.830195 -130.001843 
L 134.32587 -132.42183 
L 136.821545 -134.841817 
L 139.317221 -137.261804 
L 141.812896 -139.681792 
L 144.308572 -142.101779 
L 146.804247 -144.521766 
L 149.299922 -146.941753 
L 151.795598 -149.36174 
L 154.291273 -151.781728 
L 156.786949 -154.201715 
L 159.282624 -156.621702 
L 161.7783 -159.041689 
L 164.273975 -161.461676 
L 166.76965 -163.881664 
L 169.265326 -166.301651 
L 171.761001 -168.721638 
L 174.256677 -171.141625 
L 176.752352 -173.561612 
L 179.248027 -175.9816 
L 181.743703 -178.401587 
L 184.239378 -180.821574 
L 186.735054 -183.241561 
L 189.230729 -185.661548 
L 191.726405 -188.081536 
L 194.22208 -190.501523 
L 196.717755 -192.92151 
L 199.213431 -195.341497 
L 201.709106 -197.761484 
L 204.204782 -200.181472 
L 206.700457 -202.601459 
L 209.196132 -205.021446 
L 211.691808 -207.441433 
L 214.187483 -209.861421 
L 216.683159 -212.281408 
L 219.178834 -214.701395 
L 221.67451 -217.121382 
L 224.170185 -219.541398 
L 226.66586 -221.961435 
L 229.161536 -224.381473 
L 231.657211 -226.80151 
L 234.152887 -229.221548 
L 236.648562 -231.641586 
L 239.144237 -234.061623 
L 241.639913 -236.481661 
L 244.135588 -238.901698 
L 246.631264 -241.321736 
L 249.126939 -243.741773 
L 251.622614 -246.161811 
L 254.11829 -248.581849 
L 256.613965 -251.001886 
L 259.109641 -253.421924 
L 261.605316 -255.841961 
L 264.100992 -258.261912 
L 266.596667 -260.681825 
L 269.092342 -263.101738 
L 271.588018 -265.521651 
L 274.083693 -267.941564 
L 276.579369 -270.361477 
L 279.075044 -272.78139 
L 281.570719 -275.201303 
L 284.066395 -277.621215 
L 286.56207 -280.041128 
L 289.057746 -282.461041 
L 291.553421 -284.883737 
L 294.049097 -287.306621 
L 296.544772 -289.729505 
L 299.040447 -292.152389 
L 301.536123 -294.575273 
L 304.031798 -296.987712 
L 306.527474 -299.400432 
L 309.023149 -301.820345 
L 311.518824 -304.240258 
L 314.0145 -306.627962 
L 314.0145 -339.197979 
L 314.0145 -339.197979 
L 311.518824 -336.420793 
L 309.023149 -333.643607 
L 306.527474 -330.866421 
L 304.031798 -328.089235 
L 301.536123 -325.312049 
L 299.040447 -322.534864 
L 296.544772 -319.757678 
L 294.049097 -316.980492 
L 291.553421 -314.203306 
L 289.057746 -311.42612 
L 286.56207 -308.648934 
L 284.066395 -305.871748 
L 281.570719 -303.094563 
L 279.075044 -300.317377 
L 276.579369 -297.540191 
L 274.083693 -294.763005 
L 271.588018 -291.985819 
L 269.092342 -289.208633 
L 266.596667 -286.431447 
L 264.100992 -283.654262 
L 261.605316 -280.877076 
L 259.109641 -278.09989 
L 256.613965 -275.322704 
L 254.11829 -272.545518 
L 251.622614 -269.768332 
L 249.126939 -266.991146 
L 246.631264 -264.213961 
L 244.135588 -261.436775 
L 241.639913 -258.659589 
L 239.144237 -255.882403 
L 236.648562 -253.105217 
L 234.152887 -250.328031 
L 231.657211 -247.550845 
L 229.161536 -244.77366 
L 226.66586 -241.996474 
L 224.170185 -239.217505 
L 221.67451 -236.433694 
L 219.178834 -233.649883 
L 216.683159 -230.866072 
L 214.187483 -228.082261 
L 211.691808 -225.29845 
L 209.196132 -222.514639 
L 206.700457 -219.730828 
L 204.204782 -216.947017 
L 201.709106 -214.163206 
L 199.213431 -211.379395 
L 196.717755 -208.595584 
L 194.22208 -205.90452 
L 191.726405 -203.121605 
L 189.230729 -200.341174 
L 186.735054 -197.564162 
L 184.239378 -194.787151 
L 181.743703 -192.010139 
L 179.248027 -189.262035 
L 176.752352 -186.530791 
L 174.256677 -183.799546 
L 171.761001 -181.209875 
L 169.265326 -178.933501 
L 166.76965 -176.286868 
L 164.273975 -173.460429 
L 161.7783 -170.981566 
L 159.282624 -168.726139 
L 156.786949 -166.470713 
L 154.291273 -164.215286 
L 151.795598 -161.95986 
L 149.299922 -159.704433 
L 146.804247 -157.449007 
L 144.308572 -155.19358 
L 141.812896 -152.938154 
L 139.317221 -150.682727 
L 136.821545 -148.427301 
L 134.32587 -146.171874 
L 131.830195 -143.916448 
L 129.334519 -141.661021 
L 126.838844 -139.405595 
L 124.343168 -137.150168 
L 121.847493 -134.894742 
L 119.351818 -132.639315 
L 116.856142 -130.383889 
L 114.360467 -128.128462 
L 111.864791 -125.873036 
L 109.369116 -123.617609 
L 106.87344 -121.362183 
L 104.377765 -119.106757 
L 101.88209 -116.85133 
L 99.386414 -114.595904 
L 96.890739 -112.340477 
L 94.395063 -110.085051 
L 91.899388 -107.829624 
L 89.403713 -105.574198 
L 86.908037 -103.318771 
L 84.412362 -101.063345 
L 81.916686 -98.807918 
L 79.421011 -96.552492 
L 76.925335 -94.297065 
L 74.42966 -92.041639 
L 71.933985 -89.786212 
L 69.438309 -87.530786 
L 66.942634 -85.275359 
z
" id="m8efb1453e9" style="stroke:#ffffff;stroke-opacity:0.15;"/>
    </defs>
    <g clip-path="url(#p7f5bbf74a4)">
     <use style="fill:#f77189;fill-opacity:0.15;stroke:#ffffff;stroke-opacity:0.15;" x="0" xlink:href="#m8efb1453e9" y="377.413297"/>
    </g>
   </g>
   <g id="LineCollection_1">
    <path clip-path="url(#p7f5bbf74a4)" d="M 290.02694 70.785335 
L 338.00206 70.785335 
" style="fill:none;stroke:#f77189;stroke-width:1.5;"/>
    <path clip-path="url(#p7f5bbf74a4)" d="M 184.481677 170.610309 
L 206.070481 170.610309 
" style="fill:none;stroke:#f77189;stroke-width:1.5;"/>
    <path clip-path="url(#p7f5bbf74a4)" d="M 125.712155 240.833783 
L 137.705935 240.833783 
" style="fill:none;stroke:#f77189;stroke-width:1.5;"/>
    <path clip-path="url(#p7f5bbf74a4)" d="M 89.730816 281.5839 
L 101.724596 281.5839 
" style="fill:none;stroke:#f77189;stroke-width:1.5;"/>
    <path clip-path="url(#p7f5bbf74a4)" d="M 64.543878 311.057256 
L 69.34139 311.057256 
" style="fill:none;stroke:#f77189;stroke-width:1.5;"/>
   </g>
   <g id="LineCollection_2">
    <path clip-path="url(#p7f5bbf74a4)" d="M 314.0145 96.41434 
L 314.0145 45.15633 
" style="fill:none;stroke:#f77189;stroke-width:1.5;"/>
    <path clip-path="url(#p7f5bbf74a4)" d="M 195.276079 182.143361 
L 195.276079 159.077257 
" style="fill:none;stroke:#f77189;stroke-width:1.5;"/>
    <path clip-path="url(#p7f5bbf74a4)" d="M 131.709045 245.959584 
L 131.709045 235.707982 
" style="fill:none;stroke:#f77189;stroke-width:1.5;"/>
    <path clip-path="url(#p7f5bbf74a4)" d="M 95.727706 284.146801 
L 95.727706 279.021 
" style="fill:none;stroke:#f77189;stroke-width:1.5;"/>
    <path clip-path="url(#p7f5bbf74a4)" d="M 66.942634 312.338706 
L 66.942634 309.775806 
" style="fill:none;stroke:#f77189;stroke-width:1.5;"/>
   </g>
   <g id="line2d_11">
    <path clip-path="url(#p7f5bbf74a4)" d="M 66.942634 306.753549 
L 69.438309 304.311408 
L 71.933985 301.869268 
L 74.42966 299.427127 
L 76.925335 296.984987 
L 79.421011 294.542847 
L 81.916686 292.100706 
L 84.412362 289.658566 
L 86.908037 287.216425 
L 89.403713 284.774285 
L 91.899388 282.332144 
L 94.395063 279.890004 
L 96.890739 277.447863 
L 99.386414 275.005723 
L 101.88209 272.563582 
L 104.377765 270.121442 
L 106.87344 267.679301 
L 109.369116 265.237161 
L 111.864791 262.795021 
L 114.360467 260.35288 
L 116.856142 257.91074 
L 119.351818 255.468599 
L 121.847493 253.026459 
L 124.343168 250.584318 
L 126.838844 248.142178 
L 129.334519 245.700037 
L 131.830195 243.257897 
L 134.32587 240.815756 
L 136.821545 238.373616 
L 139.317221 235.931475 
L 141.812896 233.489335 
L 144.308572 231.047195 
L 146.804247 228.605054 
L 149.299922 226.162914 
L 151.795598 223.720773 
L 154.291273 221.278633 
L 156.786949 218.836492 
L 159.282624 216.394352 
L 161.7783 213.952211 
L 164.273975 211.510071 
L 166.76965 209.06793 
L 169.265326 206.62579 
L 171.761001 204.18365 
L 174.256677 201.741509 
L 176.752352 199.299369 
L 179.248027 196.857228 
L 181.743703 194.415088 
L 184.239378 191.972947 
L 186.735054 189.530807 
L 189.230729 187.088666 
L 191.726405 184.646526 
L 194.22208 182.204385 
L 196.717755 179.762245 
L 199.213431 177.320104 
L 201.709106 174.877964 
L 204.204782 172.435824 
L 206.700457 169.993683 
L 209.196132 167.551543 
L 211.691808 165.109402 
L 214.187483 162.667262 
L 216.683159 160.225121 
L 219.178834 157.782981 
L 221.67451 155.34084 
L 224.170185 152.8987 
L 226.66586 150.456559 
L 229.161536 148.014419 
L 231.657211 145.572278 
L 234.152887 143.130138 
L 236.648562 140.687998 
L 239.144237 138.245857 
L 241.639913 135.803717 
L 244.135588 133.361576 
L 246.631264 130.919436 
L 249.126939 128.477295 
L 251.622614 126.035155 
L 254.11829 123.593014 
L 256.613965 121.150874 
L 259.109641 118.708733 
L 261.605316 116.266593 
L 264.100992 113.824453 
L 266.596667 111.382312 
L 269.092342 108.940172 
L 271.588018 106.498031 
L 274.083693 104.055891 
L 276.579369 101.61375 
L 279.075044 99.17161 
L 281.570719 96.729469 
L 284.066395 94.287329 
L 286.56207 91.845188 
L 289.057746 89.403048 
L 291.553421 86.960907 
L 294.049097 84.518767 
L 296.544772 82.076627 
L 299.040447 79.634486 
L 301.536123 77.192346 
L 304.031798 74.750205 
L 306.527474 72.308065 
L 309.023149 69.865924 
L 311.518824 67.423784 
L 314.0145 64.981643 
" style="fill:none;stroke:#f77189;stroke-linecap:round;stroke-width:2.25;"/>
   </g>
   <g id="line2d_12">
    <defs>
     <path d="M 0 5 
L 0 -5 
" id="m18240453c0" style="stroke:#f77189;"/>
    </defs>
    <g clip-path="url(#p7f5bbf74a4)">
     <use style="fill:#f77189;stroke:#f77189;" x="290.02694" xlink:href="#m18240453c0" y="70.785335"/>
     <use style="fill:#f77189;stroke:#f77189;" x="184.481677" xlink:href="#m18240453c0" y="170.610309"/>
     <use style="fill:#f77189;stroke:#f77189;" x="125.712155" xlink:href="#m18240453c0" y="240.833783"/>
     <use style="fill:#f77189;stroke:#f77189;" x="89.730816" xlink:href="#m18240453c0" y="281.5839"/>
     <use style="fill:#f77189;stroke:#f77189;" x="64.543878" xlink:href="#m18240453c0" y="311.057256"/>
    </g>
   </g>
   <g id="line2d_13">
    <g clip-path="url(#p7f5bbf74a4)">
     <use style="fill:#f77189;stroke:#f77189;" x="338.00206" xlink:href="#m18240453c0" y="70.785335"/>
     <use style="fill:#f77189;stroke:#f77189;" x="206.070481" xlink:href="#m18240453c0" y="170.610309"/>
     <use style="fill:#f77189;stroke:#f77189;" x="137.705935" xlink:href="#m18240453c0" y="240.833783"/>
     <use style="fill:#f77189;stroke:#f77189;" x="101.724596" xlink:href="#m18240453c0" y="281.5839"/>
     <use style="fill:#f77189;stroke:#f77189;" x="69.34139" xlink:href="#m18240453c0" y="311.057256"/>
    </g>
   </g>
   <g id="line2d_14">
    <defs>
     <path d="M 5 0 
L -5 -0 
" id="m864308922c" style="stroke:#f77189;"/>
    </defs>
    <g clip-path="url(#p7f5bbf74a4)">
     <use style="fill:#f77189;stroke:#f77189;" x="314.0145" xlink:href="#m864308922c" y="96.41434"/>
     <use style="fill:#f77189;stroke:#f77189;" x="195.276079" xlink:href="#m864308922c" y="182.143361"/>
     <use style="fill:#f77189;stroke:#f77189;" x="131.709045" xlink:href="#m864308922c" y="245.959584"/>
     <use style="fill:#f77189;stroke:#f77189;" x="95.727706" xlink:href="#m864308922c" y="284.146801"/>
     <use style="fill:#f77189;stroke:#f77189;" x="66.942634" xlink:href="#m864308922c" y="312.338706"/>
    </g>
   </g>
   <g id="line2d_15">
    <g clip-path="url(#p7f5bbf74a4)">
     <use style="fill:#f77189;stroke:#f77189;" x="314.0145" xlink:href="#m864308922c" y="45.15633"/>
     <use style="fill:#f77189;stroke:#f77189;" x="195.276079" xlink:href="#m864308922c" y="159.077257"/>
     <use style="fill:#f77189;stroke:#f77189;" x="131.709045" xlink:href="#m864308922c" y="235.707982"/>
     <use style="fill:#f77189;stroke:#f77189;" x="95.727706" xlink:href="#m864308922c" y="279.021"/>
     <use style="fill:#f77189;stroke:#f77189;" x="66.942634" xlink:href="#m864308922c" y="309.775806"/>
    </g>
   </g>
   <g id="patch_3">
    <path d="M 50.870969 327.2555 
L 50.870969 24.4515 
" style="fill:none;stroke:#ffffff;stroke-linecap:square;stroke-linejoin:miter;stroke-width:1.25;"/>
   </g>
   <g id="patch_4">
    <path d="M 50.870969 327.2555 
L 351.674969 327.2555 
" style="fill:none;stroke:#ffffff;stroke-linecap:square;stroke-linejoin:miter;stroke-width:1.25;"/>
   </g>
   <g id="text_13">
    <!-- $R\ vs\ A^{-1}$ -->
    <g style="fill:#262626;" transform="translate(167.888969 18.4515)scale(0.156 -0.156)">
     <defs>
      <path d="M 7.171875 54.6875 
L 16.703125 54.6875 
L 24.703125 8.203125 
L 50.875 54.6875 
L 60.40625 54.6875 
L 29.296875 0 
L 17.1875 0 
z
" id="DejaVuSans-Oblique-118"/>
      <path d="M 50 53.078125 
L 48.296875 44.578125 
Q 44.734375 46.53125 40.765625 47.5 
Q 36.8125 48.484375 32.625 48.484375 
Q 25.53125 48.484375 21.453125 46.0625 
Q 17.390625 43.65625 17.390625 39.5 
Q 17.390625 34.671875 26.859375 32.078125 
Q 27.59375 31.890625 27.9375 31.78125 
L 30.8125 30.90625 
Q 39.796875 28.421875 42.796875 25.6875 
Q 45.796875 22.953125 45.796875 18.21875 
Q 45.796875 9.515625 38.890625 4.046875 
Q 31.984375 -1.421875 20.796875 -1.421875 
Q 16.453125 -1.421875 11.671875 -0.578125 
Q 6.890625 0.25 1.125 2 
L 2.875 11.28125 
Q 7.8125 8.734375 12.59375 7.421875 
Q 17.390625 6.109375 21.78125 6.109375 
Q 28.375 6.109375 32.5 8.9375 
Q 36.625 11.765625 36.625 16.109375 
Q 36.625 20.796875 25.78125 23.6875 
L 24.859375 23.921875 
L 21.78125 24.703125 
Q 14.9375 26.515625 11.765625 29.46875 
Q 8.59375 32.421875 8.59375 37.015625 
Q 8.59375 45.75 15.15625 50.875 
Q 21.734375 56 33.015625 56 
Q 37.453125 56 41.671875 55.265625 
Q 45.90625 54.546875 50 53.078125 
z
" id="DejaVuSans-Oblique-115"/>
     </defs>
     <use transform="translate(0 0.684375)" xlink:href="#DejaVuSans-Oblique-82"/>
     <use transform="translate(101.9528 0.684375)" xlink:href="#DejaVuSans-Oblique-118"/>
     <use transform="translate(161.132488 0.684375)" xlink:href="#DejaVuSans-Oblique-115"/>
     <use transform="translate(245.702476 0.684375)" xlink:href="#DejaVuSans-Oblique-65"/>
     <use transform="translate(321.12745 38.965625)scale(0.7)" xlink:href="#DejaVuSans-8722"/>
     <use transform="translate(379.779793 38.965625)scale(0.7)" xlink:href="#DejaVuSans-49"/>
    </g>
   </g>
  </g>
 </g>
 <defs>
  <clipPath id="p7f5bbf74a4">
   <rect height="302.804" width="300.804" x="50.870969" y="24.4515"/>
  </clipPath>
 </defs>
</svg>
